<svg width="23" height="22" viewBox="0 0 23 22" fill="none" xmlns="http://www.w3.org/2000/svg">
<path d="M1.91858 11.0018C1.91969 15.5113 5.34788 19.3509 10.004 20.0576V13.651H7.57275V11.0018H10.0069V8.98517C9.8981 8.02958 10.2393 7.07721 10.9381 6.38635C11.6368 5.6955 12.6206 5.33776 13.6227 5.41017C14.342 5.42128 15.0594 5.48255 15.7694 5.5935V7.84758H14.558C14.141 7.79534 13.7218 7.92708 13.4184 8.20569C13.115 8.48431 12.9603 8.87964 12.9979 9.28033V11.0018H15.6534L15.2289 13.6519H12.9979V20.0576C18.0334 19.2964 21.5645 14.8975 21.033 10.0477C20.5015 5.19784 16.0936 1.59493 11.0025 1.84908C5.91134 2.10323 1.91939 6.12545 1.91858 11.0018Z" fill="#2E3A59"/>
</svg>
