<svg width="17" height="18" viewBox="0 0 17 18" fill="none" xmlns="http://www.w3.org/2000/svg">
<path d="M8.49528 18C6.17324 18 5.8995 17.987 4.99334 17.9451C4.28669 17.9205 3.58919 17.7687 2.93087 17.496C1.79185 17.0273 0.891193 16.0747 0.448362 14.8703C0.2004 14.1717 0.0666576 13.4336 0.0528595 12.6876C0 11.7315 0 11.4182 0 8.98203C0 6.51996 0.012271 6.23253 0.0528595 5.27944C0.0669595 4.53445 0.200697 3.79741 0.448362 3.0998C0.890712 1.89374 1.79284 0.940292 2.9337 0.473054C3.59317 0.209783 4.29044 0.0680083 4.99522 0.0538922C5.89667 0 6.19306 0 8.49528 0C10.8362 0 11.1052 0.0129741 11.9972 0.0538922C12.7038 0.0681303 13.403 0.20989 14.0644 0.473054C15.2049 0.940821 16.1069 1.89409 16.5497 3.0998C16.8019 3.80758 16.9363 4.55614 16.9471 5.31237C17 6.26846 17 6.58084 17 9.01597C17 11.4511 16.9868 11.7705 16.9471 12.7156C16.9331 13.4623 16.799 14.201 16.5507 14.9002C16.1067 16.1055 15.2047 17.0585 14.0644 17.5269C13.4039 17.7886 12.7062 17.93 12.001 17.9451C11.0996 18 10.8041 18 8.49528 18ZM8.46319 1.57984C6.15436 1.57984 5.9146 1.59182 5.01316 1.63473C4.47511 1.64227 3.94226 1.74725 3.43776 1.94511C2.69277 2.24652 2.10327 2.86726 1.81516 3.65369C1.62658 4.19291 1.52727 4.76245 1.5216 5.33733C1.47157 6.30439 1.47157 6.55788 1.47157 8.98203C1.47157 11.3772 1.48007 11.6677 1.5216 12.6287C1.53005 13.1978 1.6293 13.7613 1.81516 14.2954C2.10369 15.0813 2.69309 15.7016 3.43776 16.003C3.94192 16.2022 4.47498 16.3072 5.01316 16.3134C5.92687 16.3693 6.16757 16.3693 8.46319 16.3693C10.7786 16.3693 11.0184 16.3573 11.9123 16.3134C12.4507 16.3064 12.9839 16.2014 13.4886 16.003C14.2291 15.699 14.8148 15.0801 15.1027 14.2974C15.2909 13.7577 15.3902 13.1879 15.3963 12.6128H15.4067C15.4472 11.6587 15.4473 11.4042 15.4473 8.96607C15.4473 6.52794 15.4369 6.27146 15.3963 5.31836C15.3878 4.74995 15.2886 4.18714 15.1027 3.65369C14.8154 2.86983 14.2297 2.24979 13.4886 1.94511C12.984 1.74625 12.4507 1.64124 11.9123 1.63473C10.9995 1.57984 10.7607 1.57984 8.46319 1.57984ZM8.49528 13.5918C6.73014 13.593 5.13815 12.4698 4.46178 10.746C3.78541 9.02213 4.15788 7.03726 5.40548 5.71703C6.65308 4.3968 8.53008 4.00127 10.1611 4.7149C11.7921 5.42854 12.8558 7.11077 12.8562 8.97705C12.8536 11.523 10.9033 13.5869 8.49528 13.5918ZM8.49528 5.98104C6.93134 5.98104 5.66352 7.3215 5.66352 8.97505C5.66352 10.6286 6.93134 11.9691 8.49528 11.9691C10.0592 11.9691 11.327 10.6286 11.327 8.97505C11.3234 7.3231 10.0577 5.98488 8.49528 5.98104ZM13.0261 5.26946C12.4649 5.26726 12.0113 4.78502 12.0123 4.19162C12.0134 3.59823 12.4686 3.11777 13.0299 3.11777C13.5911 3.11777 14.0464 3.59822 14.0474 4.19162C14.0477 4.47791 13.9401 4.75252 13.7484 4.95477C13.5568 5.15702 13.2969 5.27026 13.0261 5.26946Z" fill="#2E3A59"/>
</svg>
