<svg width="36" height="36" viewBox="0 0 36 36" fill="none" xmlns="http://www.w3.org/2000/svg">
<g id="ri:instagram-fill">
<path id="Vector" d="M19.5419 3.00185C20.6365 2.99765 21.7311 3.00865 22.8254 3.03485L23.1164 3.04535C23.4524 3.05735 23.7839 3.07235 24.1844 3.09035C25.7804 3.16535 26.8694 3.41735 27.8249 3.78785C28.8149 4.16885 29.6489 4.68485 30.4829 5.51885C31.2454 6.26825 31.8356 7.17477 32.2124 8.17535C32.5829 9.13085 32.8349 10.2213 32.9099 11.8173C32.9279 12.2163 32.9429 12.5493 32.9549 12.8853L32.9639 13.1763C32.9905 14.2701 33.002 15.3642 32.9984 16.4583L32.9999 17.5773V19.5423C33.0036 20.637 32.9921 21.7316 32.9654 22.8258L32.9564 23.1168C32.9444 23.4528 32.9294 23.7843 32.9114 24.1848C32.8364 25.7808 32.5814 26.8698 32.2124 27.8253C31.8369 28.827 31.2465 29.7342 30.4829 30.4833C29.7328 31.2458 28.8259 31.836 27.8249 32.2128C26.8694 32.5833 25.7804 32.8353 24.1844 32.9103C23.7839 32.9283 23.4524 32.9433 23.1164 32.9553L22.8254 32.9643C21.7311 32.991 20.6365 33.0025 19.5419 32.9988L18.4229 33.0003H16.4594C15.3648 33.004 14.2702 32.9925 13.1759 32.9658L12.8849 32.9568C12.5288 32.9439 12.1728 32.9289 11.8169 32.9118C10.2209 32.8368 9.13189 32.5818 8.17489 32.2128C7.17391 31.8369 6.26725 31.2466 5.51839 30.4833C4.75496 29.7338 4.16423 28.8267 3.78739 27.8253C3.41689 26.8698 3.16489 25.7808 3.08989 24.1848C3.07318 23.8289 3.05818 23.4729 3.04489 23.1168L3.03739 22.8258C3.00973 21.7316 2.99723 20.637 2.99989 19.5423V16.4583C2.9957 15.3642 3.0067 14.2701 3.03289 13.1763L3.04339 12.8853C3.05539 12.5493 3.07039 12.2163 3.08839 11.8173C3.16339 10.2198 3.41539 9.13235 3.78589 8.17535C4.16295 7.17428 4.75483 6.26801 5.51989 5.52035C6.26823 4.75647 7.17433 4.1652 8.17489 3.78785C9.13189 3.41735 10.2194 3.16535 11.8169 3.09035L12.8849 3.04535L13.1759 3.03785C14.2697 3.01021 15.3638 2.9977 16.4579 3.00035L19.5419 3.00185ZM17.9999 10.5018C17.0061 10.4878 16.0195 10.6714 15.0974 11.0419C14.1752 11.4125 13.3359 11.9627 12.6282 12.6604C11.9205 13.3582 11.3585 14.1897 10.9749 15.1065C10.5913 16.0233 10.3938 17.0073 10.3938 18.0011C10.3938 18.9949 10.5913 19.9789 10.9749 20.8957C11.3585 21.8125 11.9205 22.644 12.6282 23.3418C13.3359 24.0395 14.1752 24.5897 15.0974 24.9602C16.0195 25.3308 17.0061 25.5144 17.9999 25.5003C19.989 25.5003 21.8967 24.7102 23.3032 23.3036C24.7097 21.8971 25.4999 19.9895 25.4999 18.0003C25.4999 16.0112 24.7097 14.1036 23.3032 12.697C21.8967 11.2905 19.989 10.5018 17.9999 10.5018ZM17.9999 13.5018C18.5976 13.4908 19.1916 13.599 19.7471 13.8202C20.3026 14.0413 20.8084 14.3709 21.2351 14.7897C21.6617 15.2085 22.0007 15.7081 22.2321 16.2594C22.4635 16.8106 22.5827 17.4025 22.5828 18.0003C22.5829 18.5982 22.4639 19.1901 22.2326 19.7414C22.0014 20.2928 21.6627 20.7925 21.2361 21.2115C20.8096 21.6304 20.3039 21.9602 19.7485 22.1815C19.1931 22.4028 18.5992 22.5112 18.0014 22.5003C16.8079 22.5003 15.6633 22.0262 14.8194 21.1823C13.9755 20.3384 13.5014 19.1938 13.5014 18.0003C13.5014 16.8069 13.9755 15.6623 14.8194 14.8184C15.6633 13.9745 16.8079 13.5003 18.0014 13.5003L17.9999 13.5018ZM25.8749 8.25185C25.391 8.27121 24.9333 8.47707 24.5978 8.8263C24.2623 9.17553 24.0749 9.64105 24.0749 10.1253C24.0749 10.6096 24.2623 11.0752 24.5978 11.4244C24.9333 11.7736 25.391 11.9795 25.8749 11.9988C26.3722 11.9988 26.8491 11.8013 27.2007 11.4497C27.5523 11.098 27.7499 10.6211 27.7499 10.1238C27.7499 9.62656 27.5523 9.14965 27.2007 8.79802C26.8491 8.44639 26.3722 8.24885 25.8749 8.24885V8.25185Z" fill="white"/>
</g>
</svg>
