<svg width="23" height="22" viewBox="0 0 23 22" fill="none" xmlns="http://www.w3.org/2000/svg">
<path d="M12.4583 19.25H8.625V8.25H12.4583V10.0833C13.2754 9.08898 14.5146 8.49619 15.8365 8.46725C18.2137 8.47987 20.1319 10.3303 20.125 12.6042V19.25H16.2917V13.0625C16.1384 12.0382 15.22 11.2783 14.1383 11.2805C13.6651 11.2948 13.2185 11.493 12.9015 11.8292C12.5845 12.1655 12.4245 12.6109 12.4583 13.0625V19.25ZM6.70833 19.25H2.875V8.25H6.70833V19.25ZM4.79167 6.41667C3.73312 6.41667 2.875 5.59586 2.875 4.58333C2.875 3.57081 3.73312 2.75 4.79167 2.75C5.85021 2.75 6.70833 3.57081 6.70833 4.58333C6.70833 5.06956 6.5064 5.53588 6.14695 5.8797C5.78751 6.22351 5.3 6.41667 4.79167 6.41667Z" fill="#2E3A59"/>
</svg>
