<svg width="36" height="36" viewBox="0 0 36 36" fill="none" xmlns="http://www.w3.org/2000/svg">
<path d="M11.3085 33.7496C24.894 33.7496 32.3257 22.4929 32.3257 12.7481C32.3257 12.4331 32.3257 12.1136 32.3122 11.7986C33.7591 10.7512 35.0079 9.45445 36 7.96911C34.6485 8.56502 33.2162 8.95777 31.7498 9.13461C33.2944 8.21129 34.4514 6.75854 35.0055 5.04636C33.5542 5.90614 31.9658 6.5097 30.3097 6.83061C29.1964 5.64491 27.7232 4.85942 26.1182 4.59581C24.5132 4.3322 22.8661 4.60518 21.432 5.37247C19.9979 6.13975 18.8568 7.35852 18.1855 8.83999C17.5142 10.3215 17.3502 11.983 17.7188 13.5671C14.7819 13.4198 11.9088 12.6569 9.28585 11.3278C6.66286 9.99865 4.34854 8.133 2.493 5.85186C1.55102 7.47879 1.26354 9.40326 1.68895 11.2345C2.11437 13.0657 3.22077 14.6663 4.7835 15.7114C3.61246 15.6716 2.46717 15.3571 1.44 14.7934V14.8946C1.44202 16.5989 2.03244 18.2503 3.11147 19.5696C4.19049 20.8888 5.69193 21.7951 7.362 22.1351C6.72809 22.3097 6.07327 22.3968 5.41575 22.3939C4.95221 22.3953 4.48961 22.3523 4.03425 22.2656C4.50627 23.7327 5.42536 25.0155 6.66281 25.9342C7.90025 26.8529 9.39405 27.3615 10.935 27.3889C8.31725 29.4449 5.08365 30.56 1.755 30.5546C1.16847 30.5571 0.582352 30.5233 0 30.4534C3.37841 32.6072 7.30192 33.7508 11.3085 33.7496Z" fill="white"/>
</svg>
