<svg width="13" height="13" viewBox="0 0 13 13" fill="none" xmlns="http://www.w3.org/2000/svg">
<g clip-path="url(#clip0_2367_1212)">
<path d="M6.98228 0.837891L12.9001 4.6846L11.9826 5.28114V8.43481H10.9825V5.93067L10.4825 6.25569V9.18485C10.4825 9.91989 9.97545 10.4924 9.35591 10.8539C8.72338 11.223 7.88333 11.435 6.98228 11.435C6.08123 11.435 5.24068 11.223 4.60865 10.8539C3.98861 10.4929 3.48209 9.91989 3.48209 9.18485V6.25619L1.06445 4.6846L6.98228 0.837891ZM4.48214 6.90623V9.18485C4.48214 9.41637 4.64715 9.71838 5.11268 9.9899C5.5667 10.2549 6.22624 10.4349 6.98228 10.4349C7.73832 10.4349 8.39786 10.2549 8.85188 9.9899C9.31791 9.71838 9.48192 9.41637 9.48192 9.18485V6.90623L6.98178 8.53132L4.48214 6.90623ZM11.065 4.6846L6.98228 2.03046L2.89955 4.6846L6.98228 7.33825L11.065 4.6846Z" fill="#E8899E"/>
</g>
<defs>
<clipPath id="clip0_2367_1212">
<rect width="12.0007" height="12.0007" fill="white" transform="translate(0.982422 0.433594)"/>
</clipPath>
</defs>
</svg>
