<svg width="13" height="13" viewBox="0 0 13 13" fill="none" xmlns="http://www.w3.org/2000/svg">
<g clip-path="url(#clip0_2367_1220)">
<path d="M5.07789 7.65111L5.51542 6.22603L4.36535 5.30098H5.79043L6.24046 3.9009L6.69048 5.30098H8.11556L6.953 6.22603L7.39052 7.65111L6.24046 6.76356L5.07789 7.65111ZM3.24029 12.3014V8.43865C2.92361 8.08863 2.67776 7.68861 2.50275 7.23858C2.32774 6.78856 2.24023 6.30936 2.24023 5.801C2.24023 4.68427 2.62776 3.73839 3.4028 2.96335C4.17784 2.1883 5.12373 1.80078 6.24046 1.80078C7.35718 1.80078 8.30307 2.1883 9.07811 2.96335C9.85316 3.73839 10.2407 4.68427 10.2407 5.801C10.2407 6.30936 10.1532 6.78856 9.97816 7.23858C9.80315 7.68861 9.55731 8.08863 9.24062 8.43865V12.3014L6.24046 11.3013L3.24029 12.3014ZM6.24046 8.80117C7.07384 8.80117 7.78221 8.50949 8.36557 7.92612C8.94894 7.34276 9.24062 6.63438 9.24062 5.801C9.24062 4.96762 8.94894 4.25925 8.36557 3.67589C7.78221 3.09252 7.07384 2.80084 6.24046 2.80084C5.40708 2.80084 4.6987 3.09252 4.11534 3.67589C3.53197 4.25925 3.24029 4.96762 3.24029 5.801C3.24029 6.63438 3.53197 7.34276 4.11534 7.92612C4.6987 8.50949 5.40708 8.80117 6.24046 8.80117ZM4.24035 10.8138L6.24046 10.3013L8.24057 10.8138V9.26369C7.94888 9.43037 7.6342 9.56171 7.29651 9.65772C6.95883 9.75372 6.60681 9.80156 6.24046 9.80122C5.87377 9.80122 5.52158 9.75322 5.1839 9.65722C4.84621 9.56121 4.53169 9.43004 4.24035 9.26369V10.8138Z" fill="#F7C480"/>
</g>
<defs>
<clipPath id="clip0_2367_1220">
<rect width="12.0007" height="12.0007" fill="white" transform="translate(0.236328 0.802734)"/>
</clipPath>
</defs>
</svg>
