<svg width="764" height="10" viewBox="0 0 764 10" fill="none" xmlns="http://www.w3.org/2000/svg">
<path d="M381.929 9.46C384.542 9.46 386.659 7.34231 386.659 4.73C386.659 2.11769 384.542 0 381.929 0C379.317 0 377.199 2.11769 377.199 4.73C377.199 7.34231 379.317 9.46 381.929 9.46Z" fill="#1C4852"/>
<path d="M396.037 4.72961C396.037 3.13961 394.747 1.84961 393.157 1.84961C391.567 1.84961 390.277 3.13961 390.277 4.72961C390.277 6.31961 391.567 7.60961 393.157 7.60961C394.747 7.61961 396.037 6.32961 396.037 4.72961Z" fill="#1C4852"/>
<path d="M402.528 4.72906C402.528 3.92906 401.888 3.28906 401.088 3.28906C400.288 3.28906 399.648 3.92906 399.648 4.72906C399.648 5.52906 400.288 6.16906 401.088 6.16906C401.888 6.16906 402.528 5.52906 402.528 4.72906Z" fill="#1C4852"/>
<path d="M763.79 4.72906C763.79 3.92906 763.15 3.28906 762.35 3.28906C761.55 3.28906 760.91 3.92906 760.91 4.72906C760.91 5.52906 761.55 6.16906 762.35 6.16906C763.14 6.16906 763.79 5.52906 763.79 4.72906Z" fill="#1C4852"/>
<path d="M762 4.86523H401.09" stroke="#1C4852" stroke-width="1.4489" stroke-miterlimit="10" stroke-linecap="round" stroke-linejoin="round"/>
<path d="M367.75 4.72961C367.75 3.13961 369.04 1.84961 370.63 1.84961C372.22 1.84961 373.51 3.13961 373.51 4.72961C373.51 6.31961 372.22 7.60961 370.63 7.60961C369.04 7.61961 367.75 6.32961 367.75 4.72961Z" fill="#1C4852"/>
<path d="M361.25 4.72906C361.25 3.92906 361.89 3.28906 362.69 3.28906C363.49 3.28906 364.13 3.92906 364.13 4.72906C364.13 5.52906 363.49 6.16906 362.69 6.16906C361.9 6.16906 361.25 5.52906 361.25 4.72906Z" fill="#1C4852"/>
<path d="M0 4.72906C0 3.92906 0.64 3.28906 1.44 3.28906C2.24 3.28906 2.88 3.92906 2.88 4.72906C2.88 5.52906 2.24 6.16906 1.44 6.16906C0.64 6.16906 0 5.52906 0 4.72906Z" fill="#1C4852"/>
<path d="M2 4.86523H362.689" stroke="#1C4852" stroke-width="1.4489" stroke-miterlimit="10" stroke-linecap="round" stroke-linejoin="round"/>
</svg>
