<svg width="1138" height="10" viewBox="0 0 1138 10" fill="none" xmlns="http://www.w3.org/2000/svg">
<path d="M569.929 9.46C572.542 9.46 574.659 7.34231 574.659 4.73C574.659 2.11769 572.542 0 569.929 0C567.317 0 565.199 2.11769 565.199 4.73C565.199 7.34231 567.317 9.46 569.929 9.46Z" fill="#1C4852"/>
<path d="M584.037 4.72961C584.037 3.13961 582.747 1.84961 581.157 1.84961C579.567 1.84961 578.277 3.13961 578.277 4.72961C578.277 6.31961 579.567 7.60961 581.157 7.60961C582.747 7.61961 584.037 6.32961 584.037 4.72961Z" fill="#1C4852"/>
<path d="M590.528 4.72906C590.528 3.92906 589.888 3.28906 589.088 3.28906C588.288 3.28906 587.648 3.92906 587.648 4.72906C587.648 5.52906 588.288 6.16906 589.088 6.16906C589.888 6.16906 590.528 5.52906 590.528 4.72906Z" fill="#1C4852"/>
<path d="M1137.88 4.69C1137.88 3.89 1137.24 3.25 1136.44 3.25C1135.64 3.25 1135 3.89 1135 4.69C1135 5.49 1135.64 6.13 1136.44 6.13C1137.23 6.13 1137.88 5.49 1137.88 4.69Z" fill="#1C4852"/>
<path d="M1135.93 4.75H589" stroke="#1C4852" stroke-width="1.4489" stroke-miterlimit="10" stroke-linecap="round" stroke-linejoin="round"/>
<path d="M555.75 4.72961C555.75 3.13961 557.04 1.84961 558.63 1.84961C560.22 1.84961 561.51 3.13961 561.51 4.72961C561.51 6.31961 560.22 7.60961 558.63 7.60961C557.04 7.61961 555.75 6.32961 555.75 4.72961Z" fill="#1C4852"/>
<path d="M549.25 4.72906C549.25 3.92906 549.89 3.28906 550.69 3.28906C551.49 3.28906 552.13 3.92906 552.13 4.72906C552.13 5.52906 551.49 6.16906 550.69 6.16906C549.9 6.16906 549.25 5.52906 549.25 4.72906Z" fill="#1C4852"/>
<path d="M0 4.72906C0 3.92906 0.64 3.28906 1.44 3.28906C2.24 3.28906 2.88 3.92906 2.88 4.72906C2.88 5.52906 2.24 6.16906 1.44 6.16906C0.64 6.16906 0 5.52906 0 4.72906Z" fill="#1C4852"/>
<path d="M2 4.86523H548.93" stroke="#1C4852" stroke-width="1.4489" stroke-miterlimit="10" stroke-linecap="round" stroke-linejoin="round"/>
</svg>
