<svg width="48" height="48" viewBox="0 0 48 48" fill="none" xmlns="http://www.w3.org/2000/svg">
<rect width="48" height="48" rx="24" fill="white"/>
<mask id="path-2-inside-1_1832_847" fill="white">
<path fill-rule="evenodd" clip-rule="evenodd" d="M10.8001 23.4638C10.7901 23.4638 10.78 23.4632 10.7699 23.4624C10.5428 23.446 10.3713 23.2485 10.3878 23.0216C10.6267 19.7706 12.033 16.7064 14.3492 14.3942C16.6653 12.0821 19.7342 10.6781 22.9909 10.4405C23.2182 10.4247 23.416 10.5943 23.4325 10.8219C23.4498 11.0487 23.2783 11.2463 23.0511 11.2627C16.7615 11.7214 11.6718 16.8023 11.2115 23.0818C11.1958 23.2986 11.0144 23.4639 10.8001 23.4638Z"/>
</mask>
<path fill-rule="evenodd" clip-rule="evenodd" d="M10.8001 23.4638C10.7901 23.4638 10.78 23.4632 10.7699 23.4624C10.5428 23.446 10.3713 23.2485 10.3878 23.0216C10.6267 19.7706 12.033 16.7064 14.3492 14.3942C16.6653 12.0821 19.7342 10.6781 22.9909 10.4405C23.2182 10.4247 23.416 10.5943 23.4325 10.8219C23.4498 11.0487 23.2783 11.2463 23.0511 11.2627C16.7615 11.7214 11.6718 16.8023 11.2115 23.0818C11.1958 23.2986 11.0144 23.4639 10.8001 23.4638Z" fill="#6BE9DB"/>
<path d="M10.8001 23.4638L10.8005 21.4638H10.8001V23.4638ZM10.7699 23.4624L10.9171 21.4679L10.9146 21.4677L10.7699 23.4624ZM10.3878 23.0216L8.39319 22.8751L8.39307 22.8768L10.3878 23.0216ZM22.9909 10.4405L22.8526 8.44524L22.8453 8.44577L22.9909 10.4405ZM23.4325 10.8219L21.4377 10.9663L21.4383 10.9743L23.4325 10.8219ZM23.0511 11.2627L22.9065 9.26796L22.9056 9.26802L23.0511 11.2627ZM11.2115 23.0818L9.21688 22.9356L9.21679 22.9368L11.2115 23.0818ZM10.8001 21.4638C10.8389 21.4638 10.8698 21.4651 10.8882 21.4661C10.8977 21.4666 10.9052 21.467 10.9099 21.4674C10.9122 21.4675 10.9141 21.4676 10.9153 21.4677C10.9159 21.4678 10.9163 21.4678 10.9166 21.4678C10.9168 21.4678 10.9169 21.4678 10.917 21.4678C10.917 21.4679 10.9171 21.4679 10.9171 21.4679L10.6228 25.457C10.6345 25.4579 10.7094 25.4638 10.8001 25.4638V21.4638ZM10.9146 21.4677C11.7836 21.5307 12.4465 22.2859 12.3826 23.1665L8.39307 22.8768C8.29617 24.211 9.30209 25.3612 10.6253 25.4572L10.9146 21.4677ZM12.3824 23.1682C12.586 20.3979 13.7848 17.7836 15.7622 15.8097L12.9362 12.9788C10.2812 15.6291 8.66739 19.1432 8.39319 22.8751L12.3824 23.1682ZM15.7622 15.8097C17.7398 13.8355 20.3591 12.6378 23.1364 12.4352L22.8453 8.44577C19.1092 8.71835 15.5909 10.3287 12.9362 12.9788L15.7622 15.8097ZM23.1291 12.4357C22.2696 12.4953 21.5017 11.8507 21.4377 10.9663L25.4272 10.6775C25.3303 9.33798 24.1667 8.35418 22.8526 8.44525L23.1291 12.4357ZM21.4383 10.9743C21.3705 10.0867 22.039 9.33083 22.9065 9.26796L23.1957 13.2575C24.5176 13.1617 25.5291 12.0107 25.4266 10.6695L21.4383 10.9743ZM22.9056 9.26802C15.6288 9.7987 9.74983 15.6641 9.21688 22.9356L13.2062 23.2279C13.5937 17.9404 17.8941 13.6441 23.1966 13.2574L22.9056 9.26802ZM9.21679 22.9368C9.27793 22.0954 9.97884 21.4637 10.8005 21.4638L10.7996 25.4638C12.0499 25.4641 13.1136 24.5017 13.2063 23.2267L9.21679 22.9368Z" fill="#1DAD9E" mask="url(#path-2-inside-1_1832_847)"/>
<mask id="path-4-inside-2_1832_847" fill="white">
<path fill-rule="evenodd" clip-rule="evenodd" d="M24.979 37.6259C24.7647 37.6259 24.584 37.4606 24.5675 37.2438C24.5511 37.0169 24.7223 36.8194 24.9496 36.803C31.2392 36.3436 36.3296 31.2627 36.7892 24.9839C36.8058 24.757 37.0021 24.5875 37.2307 24.6025C37.4581 24.6196 37.6293 24.8172 37.6128 25.044C37.375 28.2943 35.9676 31.3586 33.6515 33.6707C31.3354 35.9828 28.2665 37.3869 25.0098 37.6252C24.9999 37.6259 24.989 37.6259 24.979 37.6259Z"/>
</mask>
<path fill-rule="evenodd" clip-rule="evenodd" d="M24.979 37.6259C24.7647 37.6259 24.584 37.4606 24.5675 37.2438C24.5511 37.0169 24.7223 36.8194 24.9496 36.803C31.2392 36.3436 36.3296 31.2627 36.7892 24.9839C36.8058 24.757 37.0021 24.5875 37.2307 24.6025C37.4581 24.6196 37.6293 24.8172 37.6128 25.044C37.375 28.2943 35.9676 31.3586 33.6515 33.6707C31.3354 35.9828 28.2665 37.3869 25.0098 37.6252C24.9999 37.6259 24.989 37.6259 24.979 37.6259Z" fill="#6BE9DB"/>
<path d="M24.5675 37.2438L22.5727 37.3878L22.5733 37.3955L24.5675 37.2438ZM24.9496 36.803L25.0939 38.7978L25.0953 38.7977L24.9496 36.803ZM36.7892 24.9839L34.7945 24.8378L34.7945 24.8379L36.7892 24.9839ZM37.2307 24.6025L37.3811 22.6082L37.3715 22.6074L37.362 22.6068L37.2307 24.6025ZM37.6128 25.044L39.6075 25.19L39.6076 25.1891L37.6128 25.044ZM33.6515 33.6707L32.2385 32.2553L32.2385 32.2553L33.6515 33.6707ZM25.0098 37.6252L25.1534 39.62L25.1558 39.6199L25.0098 37.6252ZM24.979 35.6259C25.8058 35.6259 26.4985 36.2617 26.5617 37.0921L22.5733 37.3955C22.6694 38.6596 23.7235 39.6259 24.979 39.6259V35.6259ZM26.5623 37.0997C26.6257 37.9779 25.9648 38.7347 25.0939 38.7978L24.8052 34.8082C23.4799 34.9041 22.4765 36.0559 22.5727 37.3878L26.5623 37.0997ZM25.0953 38.7977C32.3716 38.2662 38.2517 32.4011 38.7838 25.1299L34.7945 24.8379C34.4076 30.1243 30.1068 34.4209 24.8039 34.8083L25.0953 38.7977ZM38.7838 25.13C38.7192 26.0122 37.9539 26.6544 37.0995 26.5982L37.362 22.6068C36.0502 22.5205 34.8924 23.5019 34.7945 24.8378L38.7838 25.13ZM37.0804 26.5968C36.2166 26.5317 35.554 25.78 35.6181 24.8989L39.6076 25.1891C39.7046 23.8544 38.6995 22.7076 37.3811 22.6082L37.0804 26.5968ZM35.6182 24.898C35.4156 27.6667 34.2162 30.281 32.2385 32.2553L35.0645 35.0862C37.7191 32.4362 39.3344 28.922 39.6075 25.19L35.6182 24.898ZM32.2385 32.2553C30.261 34.2294 27.6414 35.4273 24.8638 35.6305L25.1558 39.6199C28.8915 39.3465 32.4098 37.7363 35.0645 35.0861L32.2385 32.2553ZM24.8662 35.6303C24.9085 35.6273 24.9411 35.6265 24.9568 35.6262C24.9723 35.6259 24.9838 35.6259 24.979 35.6259V39.6259C24.9805 39.6259 25.061 39.6267 25.1534 39.62L24.8662 35.6303Z" fill="#1DAD9E" mask="url(#path-4-inside-2_1832_847)"/>
<mask id="path-6-inside-3_1832_847" fill="white">
<path fill-rule="evenodd" clip-rule="evenodd" d="M37.2007 23.4639C36.9856 23.4639 36.8049 23.2986 36.7892 23.0818C36.3298 16.8029 31.2393 11.7221 24.9496 11.2627C24.7224 11.2462 24.551 11.0488 24.5675 10.8219C24.5848 10.5943 24.7826 10.4247 25.0098 10.4405C28.2665 10.6788 31.3353 12.0828 33.6515 14.3949C35.9677 16.7071 37.3748 19.7706 37.6128 23.0216C37.6293 23.2485 37.4579 23.446 37.2307 23.4624C37.2208 23.4632 37.2107 23.4639 37.2007 23.4639Z"/>
</mask>
<path fill-rule="evenodd" clip-rule="evenodd" d="M37.2007 23.4639C36.9856 23.4639 36.8049 23.2986 36.7892 23.0818C36.3298 16.8029 31.2393 11.7221 24.9496 11.2627C24.7224 11.2462 24.551 11.0488 24.5675 10.8219C24.5848 10.5943 24.7826 10.4247 25.0098 10.4405C28.2665 10.6788 31.3353 12.0828 33.6515 14.3949C35.9677 16.7071 37.3748 19.7706 37.6128 23.0216C37.6293 23.2485 37.4579 23.446 37.2307 23.4624C37.2208 23.4632 37.2107 23.4639 37.2007 23.4639Z" fill="#6BE9DB"/>
<path d="M37.2007 23.4639L37.2099 21.4639H37.2007V23.4639ZM36.7892 23.0818L38.7839 22.9368L38.7839 22.9358L36.7892 23.0818ZM24.9496 11.2627L25.0953 9.26804L25.0946 9.26799L24.9496 11.2627ZM24.5675 10.8219L22.5733 10.67L22.5728 10.6768L24.5675 10.8219ZM25.0098 10.4405L25.1558 8.44578L25.1479 8.44524L25.0098 10.4405ZM33.6515 14.3949L32.2385 15.8104L32.2385 15.8104L33.6515 14.3949ZM37.6128 23.0216L39.6075 22.8764L39.6075 22.8756L37.6128 23.0216ZM37.2307 23.4624L37.3746 25.4573L37.3751 25.4572L37.2307 23.4624ZM37.2007 21.4639C38.023 21.4639 38.7229 22.0971 38.7839 22.9368L34.7944 23.2267C34.887 24.5 35.9483 25.4639 37.2007 25.4639V21.4639ZM38.7839 22.9358C38.2519 15.6645 32.3716 9.79949 25.0953 9.26804L24.8039 13.2574C30.1069 13.6447 34.4078 17.9414 34.7945 23.2277L38.7839 22.9358ZM25.0946 9.26799C25.9633 9.33114 26.6263 10.0864 26.5622 10.967L22.5728 10.6768C22.4757 12.0112 23.4815 13.1613 24.8046 13.2575L25.0946 9.26799ZM26.5617 10.9738C26.495 11.8498 25.7334 12.4953 24.8717 12.4357L25.1479 8.44524C23.8317 8.35414 22.6747 9.33881 22.5733 10.67L26.5617 10.9738ZM24.8638 12.4351C27.6414 12.6384 30.2609 13.8362 32.2385 15.8104L35.0645 12.9795C32.4097 10.3294 28.8915 8.71918 25.1558 8.4458L24.8638 12.4351ZM32.2385 15.8104C34.2163 17.7847 35.4154 20.3983 35.6182 23.1677L39.6075 22.8756C39.3342 19.143 37.7191 15.6295 35.0645 12.9795L32.2385 15.8104ZM35.6181 23.1669C35.554 22.2864 36.2169 21.5306 37.0863 21.4677L37.3751 25.4572C38.6989 25.3614 39.7047 24.2106 39.6075 22.8764L35.6181 23.1669ZM37.0868 21.4676C37.0776 21.4683 37.0919 21.4672 37.1089 21.4663C37.1282 21.4653 37.1641 21.4637 37.2099 21.4639L37.1915 25.4638C37.2473 25.4641 37.2932 25.4621 37.3226 25.4606C37.3496 25.4591 37.3739 25.4573 37.3746 25.4573L37.0868 21.4676Z" fill="#1DAD9E" mask="url(#path-6-inside-3_1832_847)"/>
<path d="M10.3859 25.0441L10.3859 25.0441L10.3859 25.0441Z" fill="#6BE9DB" stroke="#1DAD9E" stroke-width="2"/>
<mask id="path-9-inside-4_1832_847" fill="white">
<path fill-rule="evenodd" clip-rule="evenodd" d="M8.59442 23.4631C8.58587 23.4631 8.57711 23.4631 8.56782 23.4624C8.34069 23.4481 8.16779 23.252 8.18142 23.0252C8.67974 15.0911 15.0482 8.73441 22.9952 8.23701C23.2248 8.22412 23.4189 8.39587 23.4332 8.62272C23.4477 8.85026 23.2748 9.04564 23.0468 9.05996C15.5142 9.53081 9.47747 15.557 9.0058 23.0766C8.99234 23.2949 8.81084 23.4631 8.59442 23.4631Z"/>
</mask>
<path fill-rule="evenodd" clip-rule="evenodd" d="M8.59442 23.4631C8.58587 23.4631 8.57711 23.4631 8.56782 23.4624C8.34069 23.4481 8.16779 23.252 8.18142 23.0252C8.67974 15.0911 15.0482 8.73441 22.9952 8.23701C23.2248 8.22412 23.4189 8.39587 23.4332 8.62272C23.4477 8.85026 23.2748 9.04564 23.0468 9.05996C15.5142 9.53081 9.47747 15.557 9.0058 23.0766C8.99234 23.2949 8.81084 23.4631 8.59442 23.4631Z" fill="#6BE9DB"/>
<path d="M8.59442 23.4631L8.59485 21.4631H8.59442V23.4631ZM8.56782 23.4624L8.72171 21.4683L8.70779 21.4673L8.69385 21.4664L8.56782 23.4624ZM8.18142 23.0252L6.18534 22.8998L6.18501 22.9053L8.18142 23.0252ZM22.9952 8.23701L22.8831 6.24011L22.8703 6.24091L22.9952 8.23701ZM23.4332 8.62272L21.4372 8.74912L21.4372 8.74914L23.4332 8.62272ZM23.0468 9.05996L23.1716 11.0561L23.1722 11.056L23.0468 9.05996ZM9.0058 23.0766L7.00973 22.9514L7.0096 22.9535L9.0058 23.0766ZM8.59442 21.4631C8.58182 21.4631 8.59901 21.463 8.61658 21.4633C8.63822 21.4637 8.67531 21.4648 8.72171 21.4683L8.41393 25.4565C8.46961 25.4608 8.51573 25.4622 8.54622 25.4627C8.56139 25.463 8.57393 25.463 8.58174 25.4631C8.58568 25.4631 8.589 25.4631 8.59101 25.4631C8.59202 25.4631 8.59294 25.4631 8.59346 25.4631C8.5941 25.4631 8.59428 25.4631 8.59442 25.4631V21.4631ZM8.69385 21.4664C9.56838 21.5216 10.2302 22.2734 10.1778 23.1451L6.18501 22.9053C6.10541 24.2306 7.11301 25.3745 8.44178 25.4584L8.69385 21.4664ZM10.1775 23.1505C10.6124 16.2253 16.1764 10.6677 23.1201 10.2331L22.8703 6.24091C13.92 6.80111 6.74703 13.957 6.18535 22.8998L10.1775 23.1505ZM23.1073 10.2339C22.2511 10.2819 21.4931 9.63055 21.4372 8.74912L25.4292 8.49631C25.3447 7.16119 24.1984 6.16633 22.8831 6.24015L23.1073 10.2339ZM21.4372 8.74914C21.3814 7.86817 22.0524 7.11848 22.9215 7.06389L23.1722 11.056C24.4972 10.9728 25.5139 9.83234 25.4292 8.49629L21.4372 8.74914ZM22.922 7.06386C14.386 7.59743 7.54467 14.423 7.00973 22.9514L11.0019 23.2018C11.4103 16.691 16.6424 11.4642 23.1716 11.0561L22.922 7.06386ZM7.0096 22.9535C7.06174 22.1081 7.76309 21.4629 8.59485 21.4631L8.59399 25.4631C9.85858 25.4633 10.9229 24.4816 11.002 23.1998L7.0096 22.9535Z" fill="#1DAD9E" mask="url(#path-9-inside-4_1832_847)"/>
<path d="M24.9788 39.8277C24.7629 39.8277 24.5808 39.6603 24.5672 39.442L24.9788 39.8277Z" fill="#6BE9DB" stroke="#1DAD9E" stroke-width="2"/>
<mask id="path-12-inside-5_1832_847" fill="white">
<path fill-rule="evenodd" clip-rule="evenodd" d="M39.4062 23.4631C39.1897 23.4631 39.0083 23.295 38.9947 23.0767C38.5231 15.5571 32.4863 9.53088 24.9536 9.06003C24.7257 9.04572 24.5529 8.85038 24.5672 8.62279C24.5817 8.39592 24.7773 8.22348 25.0052 8.23708C32.9524 8.7344 39.3208 15.0912 39.819 23.0252C39.8328 23.2521 39.6599 23.4482 39.4327 23.4625C39.4235 23.4631 39.4148 23.4632 39.4062 23.4631Z"/>
</mask>
<path fill-rule="evenodd" clip-rule="evenodd" d="M39.4062 23.4631C39.1897 23.4631 39.0083 23.295 38.9947 23.0767C38.5231 15.5571 32.4863 9.53088 24.9536 9.06003C24.7257 9.04572 24.5529 8.85038 24.5672 8.62279C24.5817 8.39592 24.7773 8.22348 25.0052 8.23708C32.9524 8.7344 39.3208 15.0912 39.819 23.0252C39.8328 23.2521 39.6599 23.4482 39.4327 23.4625C39.4235 23.4631 39.4148 23.4632 39.4062 23.4631Z" fill="#6BE9DB"/>
<path d="M39.4062 23.4631L39.417 21.4631H39.4062V23.4631ZM38.9947 23.0767L40.9908 22.9521L40.9907 22.9515L38.9947 23.0767ZM24.9536 9.06003L24.8283 11.0561L24.8289 11.0561L24.9536 9.06003ZM24.5672 8.62279L22.5713 8.49599L22.5712 8.49679L24.5672 8.62279ZM25.0052 8.23708L25.1302 6.24098L25.1244 6.24063L25.0052 8.23708ZM39.819 23.0252L41.8153 22.9037L41.8151 22.8999L39.819 23.0252ZM39.4327 23.4625L39.3069 21.4664L39.2973 21.467L39.2876 21.4677L39.4327 23.4625ZM39.4062 21.4631C40.2374 21.4631 40.9381 22.1077 40.9908 22.9521L36.9985 23.2013C37.0785 24.4822 38.1421 25.4631 39.4062 25.4631V21.4631ZM40.9907 22.9515C40.4559 14.423 33.6145 7.59749 25.0784 7.06393L24.8289 11.0561C31.3582 11.4643 36.5903 16.6911 36.9986 23.2019L40.9907 22.9515ZM25.079 7.06397C25.9484 7.11858 26.6188 7.8685 26.5633 8.74879L22.5712 8.49679C22.4869 9.83225 23.5029 10.9729 24.8283 11.0561L25.079 7.06397ZM26.5632 8.74959C26.5074 9.62859 25.7512 10.2851 24.8861 10.2335L25.1244 6.24063C23.8033 6.16181 22.6559 7.16325 22.5713 8.49599L26.5632 8.74959ZM24.8803 10.2332C31.8242 10.6677 37.3881 16.2253 37.823 23.1506L41.8151 22.8999C41.2535 13.9571 34.0806 6.80108 25.1302 6.24099L24.8803 10.2332ZM37.8227 23.1468C37.7696 22.2735 38.4327 21.5215 39.3069 21.4664L39.5585 25.4585C40.8872 25.3748 41.8961 24.2307 41.8153 22.9037L37.8227 23.1468ZM39.2876 21.4677C39.3279 21.4648 39.361 21.4638 39.3831 21.4634C39.4036 21.463 39.419 21.4631 39.417 21.4631L39.3954 25.4631C39.4063 25.4631 39.4836 25.4641 39.5778 25.4572L39.2876 21.4677Z" fill="#1DAD9E" mask="url(#path-12-inside-5_1832_847)"/>
<path d="M23.0228 39.8277C23.2385 39.8277 23.4207 39.6603 23.4342 39.442C23.4482 39.22 23.2842 39.0286 23.0644 39.0062C23.0589 39.0056 23.0534 39.0051 23.0478 39.0048L23.0229 39.4025L23.0228 39.4033L23.022 39.4161L23.022 39.4165L22.9965 39.8227L23.0228 39.8277ZM23.0228 39.8277H23.0221C23.0136 39.8277 23.0047 39.8277 22.9964 39.827L23.0228 39.8277Z" fill="#6BE9DB" stroke="#1DAD9E" stroke-width="2"/>
<mask id="path-15-inside-6_1832_847" fill="white">
<path fill-rule="evenodd" clip-rule="evenodd" d="M24.0002 6.881C23.6878 6.881 23.4332 7.13505 23.4332 7.44706L23.4333 11.9797C23.4333 12.2924 23.6877 12.5458 24.0002 12.5458C24.3128 12.5458 24.5673 12.2925 24.5673 11.9798L24.5673 7.44704C24.5673 7.13504 24.3128 6.88102 24.0002 6.881ZM24.0002 13.3702C23.2325 13.3702 22.6074 12.7469 22.6074 11.9798L22.6075 7.44704C22.6075 6.68062 23.2325 6.05664 24.0002 6.05664C24.768 6.05662 25.3931 6.68065 25.3931 7.44706L25.3931 11.9797C25.3931 12.7468 24.768 13.3702 24.0002 13.3702Z"/>
</mask>
<path fill-rule="evenodd" clip-rule="evenodd" d="M24.0002 6.881C23.6878 6.881 23.4332 7.13505 23.4332 7.44706L23.4333 11.9797C23.4333 12.2924 23.6877 12.5458 24.0002 12.5458C24.3128 12.5458 24.5673 12.2925 24.5673 11.9798L24.5673 7.44704C24.5673 7.13504 24.3128 6.88102 24.0002 6.881ZM24.0002 13.3702C23.2325 13.3702 22.6074 12.7469 22.6074 11.9798L22.6075 7.44704C22.6075 6.68062 23.2325 6.05664 24.0002 6.05664C24.768 6.05662 25.3931 6.68065 25.3931 7.44706L25.3931 11.9797C25.3931 12.7468 24.768 13.3702 24.0002 13.3702Z" fill="#6BE9DB"/>
<path d="M24.0002 6.881L24.0004 4.881H24.0002V6.881ZM23.4332 7.44706H21.4332V7.44708L23.4332 7.44706ZM23.4333 11.9797H25.4333V11.9797L23.4333 11.9797ZM24.5673 11.9798L22.5673 11.9797V11.9798H24.5673ZM24.5673 7.44704L26.5673 7.44706V7.44704H24.5673ZM22.6074 11.9798L20.6074 11.9797V11.9798H22.6074ZM22.6075 7.44704L24.6075 7.44708V7.44704H22.6075ZM24.0002 6.05664V8.05664H24.0003L24.0002 6.05664ZM25.3931 7.44706H23.3931V7.44708L25.3931 7.44706ZM25.3931 11.9797H27.3931V11.9797L25.3931 11.9797ZM24.0002 4.881C22.5866 4.881 21.4332 6.02715 21.4332 7.44706H25.4332C25.4332 8.24294 24.789 8.881 24.0002 8.881V4.881ZM21.4332 7.44708L21.4333 11.9797L25.4333 11.9797L25.4332 7.44704L21.4332 7.44708ZM21.4333 11.9797C21.4333 13.4014 22.5875 14.5458 24.0002 14.5458V10.5458C24.7879 10.5458 25.4333 11.1835 25.4333 11.9797H21.4333ZM24.0002 14.5458C25.4125 14.5458 26.5673 13.4019 26.5673 11.9798H22.5673C22.5673 11.183 23.2132 10.5458 24.0002 10.5458V14.5458ZM26.5673 11.9798L26.5673 7.44706L22.5673 7.44702L22.5673 11.9797L26.5673 11.9798ZM26.5673 7.44704C26.5673 6.0268 25.4137 4.8811 24.0004 4.881L24.0001 8.881C23.2119 8.88094 22.5673 8.24329 22.5673 7.44704H26.5673ZM24.0002 11.3702C24.3331 11.3702 24.6074 11.6384 24.6074 11.9798H20.6074C20.6074 13.8554 22.1318 15.3702 24.0002 15.3702V11.3702ZM24.6074 11.9798L24.6075 7.44708L20.6075 7.44701L20.6074 11.9797L24.6074 11.9798ZM24.6075 7.44704C24.6075 7.78833 24.3339 8.05664 24.0002 8.05664V4.05664C22.1311 4.05664 20.6075 5.57291 20.6075 7.44704H24.6075ZM24.0003 8.05664C23.6667 8.05665 23.3931 7.78847 23.3931 7.44706H27.3931C27.3931 5.57282 25.8693 4.05658 24.0002 4.05664L24.0003 8.05664ZM23.3931 7.44708L23.3931 11.9797L27.3931 11.9797L27.3931 7.44704L23.3931 7.44708ZM23.3931 11.9797C23.3931 11.6383 23.6674 11.3702 24.0002 11.3702V15.3702C25.8686 15.3702 27.3931 13.8554 27.3931 11.9797H23.3931Z" fill="#1DAD9E" mask="url(#path-15-inside-6_1832_847)"/>
<mask id="path-17-inside-7_1832_847" fill="white">
<path fill-rule="evenodd" clip-rule="evenodd" d="M7.39291 23.463C7.08031 23.463 6.82579 23.7171 6.82579 24.0291C6.82579 24.3411 7.08028 24.5951 7.39284 24.5951L11.9343 24.5951C12.2467 24.5951 12.5011 24.3411 12.5011 24.0291C12.5012 23.7171 12.2466 23.4631 11.9341 23.4631L7.39291 23.463ZM11.9343 25.4195H7.39291C6.62515 25.4195 6 24.7955 6 24.0291C6.00014 23.2627 6.62509 22.6387 7.39284 22.6387H11.9343C12.702 22.6387 13.3262 23.2627 13.3262 24.0291C13.3264 24.7955 12.7019 25.4195 11.9343 25.4195Z"/>
</mask>
<path fill-rule="evenodd" clip-rule="evenodd" d="M7.39291 23.463C7.08031 23.463 6.82579 23.7171 6.82579 24.0291C6.82579 24.3411 7.08028 24.5951 7.39284 24.5951L11.9343 24.5951C12.2467 24.5951 12.5011 24.3411 12.5011 24.0291C12.5012 23.7171 12.2466 23.4631 11.9341 23.4631L7.39291 23.463ZM11.9343 25.4195H7.39291C6.62515 25.4195 6 24.7955 6 24.0291C6.00014 23.2627 6.62509 22.6387 7.39284 22.6387H11.9343C12.702 22.6387 13.3262 23.2627 13.3262 24.0291C13.3264 24.7955 12.7019 25.4195 11.9343 25.4195Z" fill="#6BE9DB"/>
<path d="M7.39291 23.463L7.39293 21.463H7.39291V23.463ZM7.39284 24.5951V26.5951H7.39285L7.39284 24.5951ZM11.9343 24.5951V22.5951H11.9343L11.9343 24.5951ZM12.5011 24.0291L10.5011 24.0288V24.0291H12.5011ZM11.9341 23.4631L11.9341 25.4631H11.9341V23.4631ZM11.9343 25.4195L11.9343 23.4195H11.9343V25.4195ZM6 24.0291L4 24.0287V24.0291H6ZM13.3262 24.0291H11.3262V24.0294L13.3262 24.0291ZM7.39291 21.463C5.97906 21.463 4.82579 22.6092 4.82579 24.0291H8.82579C8.82579 24.825 8.18155 25.463 7.39291 25.463V21.463ZM4.82579 24.0291C4.82579 25.449 5.97904 26.5951 7.39284 26.5951V22.5951C8.18152 22.5951 8.82579 23.2332 8.82579 24.0291H4.82579ZM7.39285 26.5951L11.9343 26.5951L11.9343 22.5951L7.39283 22.5951L7.39285 26.5951ZM11.9343 26.5951C13.3481 26.5951 14.5011 25.4488 14.5011 24.0291H10.5011C10.5011 23.2334 11.1452 22.5951 11.9343 22.5951V26.5951ZM14.5011 24.0294C14.5014 22.6089 13.3476 21.4631 11.9341 21.4631V25.4631C11.1457 25.4631 10.501 24.8252 10.5011 24.0288L14.5011 24.0294ZM11.9341 21.4631L7.39293 21.463L7.39289 25.463L11.9341 25.4631L11.9341 21.4631ZM11.9343 23.4195H7.39291V27.4195H11.9343V23.4195ZM7.39291 23.4195C7.72628 23.4195 8 23.6875 8 24.0291H4C4 25.9035 5.52403 27.4195 7.39291 27.4195V23.4195ZM8 24.0295C7.99994 24.3703 7.72671 24.6387 7.39284 24.6387V20.6387C5.52347 20.6387 4.00034 22.1551 4 24.0287L8 24.0295ZM7.39284 24.6387H11.9343V20.6387H7.39284V24.6387ZM11.9343 24.6387C11.5991 24.6387 11.3262 24.3689 11.3262 24.0291H15.3262C15.3262 22.1564 13.8049 20.6387 11.9343 20.6387V24.6387ZM11.3262 24.0294C11.3262 23.6889 11.5994 23.4195 11.9343 23.4195L11.9342 27.4195C13.8043 27.4195 15.3265 25.9021 15.3262 24.0288L11.3262 24.0294Z" fill="#1DAD9E" mask="url(#path-17-inside-7_1832_847)"/>
<mask id="path-19-inside-8_1832_847" fill="white">
<path fill-rule="evenodd" clip-rule="evenodd" d="M24.0002 35.5119C23.6878 35.5119 23.4332 35.766 23.4332 36.078L23.4333 40.6114C23.4333 40.9233 23.6877 41.1774 24.0002 41.1774C24.3128 41.1774 24.5673 40.9234 24.5673 40.6114L24.5673 36.0779C24.5673 35.7659 24.3128 35.5119 24.0002 35.5119ZM24.0002 42.0018C23.2325 42.0018 22.6074 41.3777 22.6074 40.6113L22.6075 36.0779C22.6075 35.3115 23.2325 34.6875 24.0002 34.6875C24.768 34.6875 25.3931 35.3115 25.3931 36.0779L25.3931 40.6113C25.3931 41.3778 24.768 42.0018 24.0002 42.0018Z"/>
</mask>
<path fill-rule="evenodd" clip-rule="evenodd" d="M24.0002 35.5119C23.6878 35.5119 23.4332 35.766 23.4332 36.078L23.4333 40.6114C23.4333 40.9233 23.6877 41.1774 24.0002 41.1774C24.3128 41.1774 24.5673 40.9234 24.5673 40.6114L24.5673 36.0779C24.5673 35.7659 24.3128 35.5119 24.0002 35.5119ZM24.0002 42.0018C23.2325 42.0018 22.6074 41.3777 22.6074 40.6113L22.6075 36.0779C22.6075 35.3115 23.2325 34.6875 24.0002 34.6875C24.768 34.6875 25.3931 35.3115 25.3931 36.0779L25.3931 40.6113C25.3931 41.3778 24.768 42.0018 24.0002 42.0018Z" fill="#6BE9DB"/>
<path d="M24.0002 35.5119L24.0005 33.5119H24.0002V35.5119ZM23.4332 36.078H21.4332V36.078L23.4332 36.078ZM23.4333 40.6114H25.4333V40.6113L23.4333 40.6114ZM24.5673 40.6114L22.5673 40.6113V40.6114H24.5673ZM24.5673 36.0779L26.5673 36.078V36.0779H24.5673ZM22.6074 40.6113L20.6074 40.6113V40.6113H22.6074ZM22.6075 36.0779L24.6075 36.078V36.0779H22.6075ZM24.0002 34.6875V36.6875H24.0003L24.0002 34.6875ZM25.3931 36.0779H23.3931V36.078L25.3931 36.0779ZM25.3931 40.6113H27.3931V40.6113L25.3931 40.6113ZM24.0002 33.5119C22.5865 33.5119 21.4332 34.6582 21.4332 36.078H25.4332C25.4332 36.8737 24.7892 37.5119 24.0002 37.5119V33.5119ZM21.4332 36.078L21.4333 40.6114L25.4333 40.6113L25.4332 36.0779L21.4332 36.078ZM21.4333 40.6114C21.4333 42.0307 22.586 43.1774 24.0002 43.1774V39.1774C24.7894 39.1774 25.4333 39.8159 25.4333 40.6114H21.4333ZM24.0002 43.1774C25.4141 43.1774 26.5673 42.0313 26.5673 40.6114H22.5673C22.5673 39.8155 23.2116 39.1774 24.0002 39.1774V43.1774ZM26.5673 40.6114L26.5673 36.078L22.5673 36.0779L22.5673 40.6113L26.5673 40.6114ZM26.5673 36.0779C26.5673 34.6576 25.4137 33.5121 24.0005 33.5119L23.9999 37.5119C23.2119 37.5118 22.5673 36.8742 22.5673 36.0779H26.5673ZM24.0002 40.0018C24.3338 40.0018 24.6074 40.2699 24.6074 40.6113H20.6074C20.6074 42.4856 22.1312 44.0018 24.0002 44.0018V40.0018ZM24.6074 40.6114L24.6075 36.078L20.6075 36.0779L20.6074 40.6113L24.6074 40.6114ZM24.6075 36.0779C24.6075 36.4192 24.3339 36.6875 24.0002 36.6875V32.6875C22.1311 32.6875 20.6075 34.2038 20.6075 36.0779H24.6075ZM24.0003 36.6875C23.6667 36.6875 23.3931 36.4193 23.3931 36.0779H27.3931C27.3931 34.2037 25.8693 32.6874 24.0002 32.6875L24.0003 36.6875ZM23.3931 36.078L23.3931 40.6114L27.3931 40.6113L27.3931 36.0779L23.3931 36.078ZM23.3931 40.6113C23.3931 40.2698 23.6668 40.0018 24.0002 40.0018V44.0018C25.8692 44.0018 27.3931 42.4857 27.3931 40.6113H23.3931Z" fill="#1DAD9E" mask="url(#path-19-inside-8_1832_847)"/>
<mask id="path-21-inside-9_1832_847" fill="white">
<path fill-rule="evenodd" clip-rule="evenodd" d="M36.0657 23.463C35.7533 23.463 35.4987 23.7171 35.4987 24.0291C35.4988 24.3411 35.7532 24.5951 36.0657 24.5951L40.6071 24.5951C40.9197 24.5951 41.174 24.3411 41.174 24.0291C41.174 23.7171 40.9196 23.4631 40.607 23.4631L36.0657 23.463ZM40.6071 25.4195H36.0657C35.298 25.4195 34.6729 24.7955 34.6729 24.0291C34.673 23.2627 35.298 22.6387 36.0657 22.6387H40.6071C41.3748 22.6387 41.9998 23.2627 41.9998 24.0291C41.9998 24.7955 41.3748 25.4195 40.6071 25.4195Z"/>
</mask>
<path fill-rule="evenodd" clip-rule="evenodd" d="M36.0657 23.463C35.7533 23.463 35.4987 23.7171 35.4987 24.0291C35.4988 24.3411 35.7532 24.5951 36.0657 24.5951L40.6071 24.5951C40.9197 24.5951 41.174 24.3411 41.174 24.0291C41.174 23.7171 40.9196 23.4631 40.607 23.4631L36.0657 23.463ZM40.6071 25.4195H36.0657C35.298 25.4195 34.6729 24.7955 34.6729 24.0291C34.673 23.2627 35.298 22.6387 36.0657 22.6387H40.6071C41.3748 22.6387 41.9998 23.2627 41.9998 24.0291C41.9998 24.7955 41.3748 25.4195 40.6071 25.4195Z" fill="#6BE9DB"/>
<path d="M36.0657 23.463L36.0657 21.463H36.0657V23.463ZM35.4987 24.0291H33.4987L33.4987 24.0298L35.4987 24.0291ZM36.0657 24.5951V26.5951H36.0657L36.0657 24.5951ZM40.6071 24.5951V22.5951H40.6071L40.6071 24.5951ZM40.607 23.4631L40.607 25.4631H40.607V23.4631ZM40.6071 25.4195L40.6071 23.4195H40.6071V25.4195ZM34.6729 24.0291L32.6729 24.0288V24.0291H34.6729ZM36.0657 21.463C34.6522 21.463 33.4987 22.6091 33.4987 24.0291H37.4987C37.4987 24.8251 36.8544 25.463 36.0657 25.463V21.463ZM33.4987 24.0298C33.4992 25.4485 34.6512 26.5951 36.0657 26.5951V22.5951C36.8551 22.5951 37.4984 23.2337 37.4987 24.0284L33.4987 24.0298ZM36.0657 26.5951L40.6071 26.5951L40.6071 22.5951L36.0657 22.5951L36.0657 26.5951ZM40.6071 26.5951C42.0213 26.5951 43.174 25.4486 43.174 24.0291H39.174C39.174 23.2336 39.8181 22.5951 40.6071 22.5951V26.5951ZM43.174 24.0291C43.174 22.6092 42.0208 21.4631 40.607 21.4631V25.4631C39.8183 25.4631 39.174 24.825 39.174 24.0291H43.174ZM40.607 21.4631L36.0657 21.463L36.0657 25.463L40.607 25.4631L40.607 21.4631ZM40.6071 23.4195H36.0657V27.4195H40.6071V23.4195ZM36.0657 23.4195C36.3992 23.4195 36.6729 23.6876 36.6729 24.0291H32.6729C32.6729 25.9034 34.1967 27.4195 36.0657 27.4195V23.4195ZM36.6729 24.0294C36.6728 24.3704 36.3995 24.6387 36.0657 24.6387V20.6387C34.1964 20.6387 32.6731 22.155 32.6729 24.0288L36.6729 24.0294ZM36.0657 24.6387H40.6071V20.6387H36.0657V24.6387ZM40.6071 24.6387C40.2734 24.6387 39.9998 24.3703 39.9998 24.0291H43.9998C43.9998 22.155 42.4763 20.6387 40.6071 20.6387V24.6387ZM39.9998 24.0291C39.9998 23.6878 40.2734 23.4195 40.6071 23.4195L40.607 27.4195C42.4761 27.4195 43.9998 25.9033 43.9998 24.0291H39.9998Z" fill="#1DAD9E" mask="url(#path-21-inside-9_1832_847)"/>
<mask id="path-23-inside-10_1832_847" fill="white">
<path fill-rule="evenodd" clip-rule="evenodd" d="M24.001 19.3048C21.3945 19.3048 19.2741 21.4216 19.2741 24.0236C19.2742 26.6255 21.3945 28.7423 24.001 28.7423C26.6076 28.7423 28.7279 26.6255 28.7279 24.0236C28.728 21.4216 26.6075 19.3048 24.001 19.3048ZM24.001 29.5667C20.9393 29.5667 18.4482 27.08 18.4482 24.0236C18.4484 20.9672 20.9393 18.4805 24.001 18.4805C27.0628 18.4804 29.5538 20.9672 29.5538 24.0236C29.5538 27.08 27.0627 29.5667 24.001 29.5667Z"/>
</mask>
<path fill-rule="evenodd" clip-rule="evenodd" d="M24.001 19.3048C21.3945 19.3048 19.2741 21.4216 19.2741 24.0236C19.2742 26.6255 21.3945 28.7423 24.001 28.7423C26.6076 28.7423 28.7279 26.6255 28.7279 24.0236C28.728 21.4216 26.6075 19.3048 24.001 19.3048ZM24.001 29.5667C20.9393 29.5667 18.4482 27.08 18.4482 24.0236C18.4484 20.9672 20.9393 18.4805 24.001 18.4805C27.0628 18.4804 29.5538 20.9672 29.5538 24.0236C29.5538 27.08 27.0627 29.5667 24.001 29.5667Z" fill="#6BE9DB"/>
<path d="M24.001 19.3048L24.001 17.3048H24.001V19.3048ZM19.2741 24.0236H17.2741V24.0236L19.2741 24.0236ZM28.7279 24.0236L26.7279 24.0235V24.0236H28.7279ZM18.4482 24.0236L16.4482 24.0235V24.0236H18.4482ZM24.001 18.4805V20.4805H24.001L24.001 18.4805ZM29.5538 24.0236H27.5538V24.0236L29.5538 24.0236ZM24.001 17.3048C20.2932 17.3048 17.2741 20.3138 17.2741 24.0236H21.2741C21.2741 22.5294 22.4958 21.3048 24.001 21.3048V17.3048ZM17.2741 24.0236C17.2742 27.7333 20.2931 30.7423 24.001 30.7423V26.7423C22.4959 26.7423 21.2741 25.5177 21.2741 24.0235L17.2741 24.0236ZM24.001 30.7423C27.709 30.7423 30.7279 27.7333 30.7279 24.0236H26.7279C26.7279 25.5177 25.5063 26.7423 24.001 26.7423V30.7423ZM30.7279 24.0236C30.728 20.3137 27.7088 17.3048 24.001 17.3048L24.001 21.3048C25.5062 21.3048 26.728 22.5295 26.7279 24.0235L30.7279 24.0236ZM24.001 27.5667C22.0406 27.5667 20.4482 25.9721 20.4482 24.0236H16.4482C16.4482 28.1878 19.838 31.5667 24.001 31.5667V27.5667ZM20.4482 24.0237C20.4483 22.075 22.0407 20.4805 24.001 20.4805V16.4805C19.8379 16.4805 16.4484 19.8594 16.4482 24.0235L20.4482 24.0237ZM24.001 20.4805C25.9615 20.4805 27.5538 22.075 27.5538 24.0236H31.5538C31.5538 19.8594 28.1641 16.4804 24.001 16.4805L24.001 20.4805ZM27.5538 24.0236C27.5538 25.9721 25.9614 27.5667 24.001 27.5667V31.5667C28.164 31.5667 31.5538 28.1878 31.5538 24.0236L27.5538 24.0236Z" fill="#1DAD9E" mask="url(#path-23-inside-10_1832_847)"/>
<mask id="path-25-inside-11_1832_847" fill="white">
<path fill-rule="evenodd" clip-rule="evenodd" d="M24.0004 22.6583C23.2434 22.6583 22.6276 23.2731 22.6276 24.0288C22.6276 24.7844 23.2433 25.3992 24.0004 25.3992C24.7575 25.3991 25.3731 24.7845 25.3731 24.0288C25.3733 23.2731 24.7574 22.6584 24.0004 22.6583ZM24.0004 26.2235C22.7882 26.2235 21.8018 25.2389 21.8018 24.0288C21.8018 22.8186 22.7882 21.834 24.0004 21.834C25.2126 21.834 26.1989 22.8187 26.1989 24.0288C26.1991 25.2388 25.2126 26.2236 24.0004 26.2235Z"/>
</mask>
<path fill-rule="evenodd" clip-rule="evenodd" d="M24.0004 22.6583C23.2434 22.6583 22.6276 23.2731 22.6276 24.0288C22.6276 24.7844 23.2433 25.3992 24.0004 25.3992C24.7575 25.3991 25.3731 24.7845 25.3731 24.0288C25.3733 23.2731 24.7574 22.6584 24.0004 22.6583ZM24.0004 26.2235C22.7882 26.2235 21.8018 25.2389 21.8018 24.0288C21.8018 22.8186 22.7882 21.834 24.0004 21.834C25.2126 21.834 26.1989 22.8187 26.1989 24.0288C26.1991 25.2388 25.2126 26.2236 24.0004 26.2235Z" fill="#6BE9DB"/>
<path d="M24.0004 22.6583L24.0005 20.6583H24.0004V22.6583ZM22.6276 24.0288H20.6276V24.0288L22.6276 24.0288ZM24.0004 25.3992V27.3992H24.0004L24.0004 25.3992ZM25.3731 24.0288L23.3731 24.0285V24.0288H25.3731ZM24.0004 26.2235L24.0004 24.2235H24.0004V26.2235ZM21.8018 24.0288L19.8018 24.0287V24.0288H21.8018ZM24.0004 21.834V23.834H24.0004L24.0004 21.834ZM26.1989 24.0288H24.1989V24.029L26.1989 24.0288ZM24.0004 20.6583C22.1421 20.6583 20.6276 22.1653 20.6276 24.0288H24.6276C24.6276 24.3809 24.3447 24.6583 24.0004 24.6583V20.6583ZM20.6276 24.0288C20.6276 25.8922 22.1419 27.3992 24.0004 27.3992V23.3992C24.3447 23.3992 24.6276 23.6767 24.6276 24.0287L20.6276 24.0288ZM24.0004 27.3992C25.8588 27.3991 27.3731 25.8923 27.3731 24.0288H23.3731C23.3731 23.6766 23.6561 23.3992 24.0003 23.3992L24.0004 27.3992ZM27.3731 24.0291C27.3734 22.165 25.8583 20.6584 24.0005 20.6583L24.0002 24.6583C23.6564 24.6583 23.3731 24.3812 23.3731 24.0285L27.3731 24.0291ZM24.0004 24.2235C23.8895 24.2235 23.8018 24.1309 23.8018 24.0288H19.8018C19.8018 26.3468 21.687 28.2235 24.0004 28.2235V24.2235ZM23.8018 24.0288C23.8018 23.9265 23.8895 23.834 24.0004 23.834V19.834C21.6869 19.834 19.8018 21.7108 19.8018 24.0287L23.8018 24.0288ZM24.0004 23.834C24.1113 23.834 24.1989 23.9264 24.1989 24.0288H28.1989C28.1989 21.7109 26.314 19.8339 24.0003 19.834L24.0004 23.834ZM24.1989 24.029C24.199 24.1309 24.1114 24.2235 24.0004 24.2235L24.0003 28.2235C26.3137 28.2236 28.1992 26.3468 28.1989 24.0285L24.1989 24.029Z" fill="#1DAD9E" mask="url(#path-25-inside-11_1832_847)"/>
<mask id="path-27-inside-12_1832_847" fill="white">
<path fill-rule="evenodd" clip-rule="evenodd" d="M36.5979 9.1756L36.4774 11.4669L38.7721 11.346L40.5182 9.6028L38.7241 9.64647C38.6129 9.65073 38.5017 9.60567 38.4222 9.52554C38.3419 9.44609 38.2988 9.33733 38.301 9.22426L38.344 7.43164L36.5979 9.1756ZM36.0408 12.315C35.9319 12.315 35.8264 12.272 35.749 12.1948C35.6659 12.1118 35.6221 11.998 35.6285 11.8813L35.7814 8.9745C35.7871 8.87215 35.8293 8.77629 35.9017 8.70475L38.4897 6.1206C38.6094 6.00185 38.7892 5.9668 38.9447 6.03335C39.0997 6.09988 39.1985 6.25377 39.1949 6.42193L39.137 8.81207L41.5305 8.75337C41.6975 8.74694 41.853 8.84857 41.9197 9.00313C41.9865 9.15839 41.9519 9.33805 41.8322 9.45682L39.2437 12.0409C39.1721 12.1132 39.0759 12.1554 38.9742 12.1611L36.0624 12.3142C36.0551 12.315 36.0479 12.315 36.0408 12.315Z"/>
</mask>
<path fill-rule="evenodd" clip-rule="evenodd" d="M36.5979 9.1756L36.4774 11.4669L38.7721 11.346L40.5182 9.6028L38.7241 9.64647C38.6129 9.65073 38.5017 9.60567 38.4222 9.52554C38.3419 9.44609 38.2988 9.33733 38.301 9.22426L38.344 7.43164L36.5979 9.1756ZM36.0408 12.315C35.9319 12.315 35.8264 12.272 35.749 12.1948C35.6659 12.1118 35.6221 11.998 35.6285 11.8813L35.7814 8.9745C35.7871 8.87215 35.8293 8.77629 35.9017 8.70475L38.4897 6.1206C38.6094 6.00185 38.7892 5.9668 38.9447 6.03335C39.0997 6.09988 39.1985 6.25377 39.1949 6.42193L39.137 8.81207L41.5305 8.75337C41.6975 8.74694 41.853 8.84857 41.9197 9.00313C41.9865 9.15839 41.9519 9.33805 41.8322 9.45682L39.2437 12.0409C39.1721 12.1132 39.0759 12.1554 38.9742 12.1611L36.0624 12.3142C36.0551 12.315 36.0479 12.315 36.0408 12.315Z" fill="#6BE9DB"/>
<path d="M36.5979 9.1756L35.1846 7.76049L34.641 8.30339L34.6006 9.07057L36.5979 9.1756ZM36.4774 11.4669L34.4802 11.3619L34.3635 13.5811L36.5826 13.4642L36.4774 11.4669ZM38.7721 11.346L38.8773 13.3433L39.6427 13.3029L40.1852 12.7614L38.7721 11.346ZM40.5182 9.6028L41.9313 11.0182L45.4737 7.48159L40.4696 7.60339L40.5182 9.6028ZM38.7241 9.64647L38.6754 7.64707L38.6614 7.6474L38.6475 7.64794L38.7241 9.64647ZM38.4222 9.52554L39.8413 8.11626L39.8355 8.1104L39.8296 8.10458L38.4222 9.52554ZM38.301 9.22426L36.3016 9.1763L36.3014 9.18532L38.301 9.22426ZM38.344 7.43164L40.3435 7.47961L40.4632 2.4885L36.9307 6.01654L38.344 7.43164ZM36.0408 12.315L36.0472 10.315H36.0408V12.315ZM35.749 12.1948L34.3352 13.6094L34.336 13.6102L35.749 12.1948ZM35.6285 11.8813L37.6255 11.9912L37.6258 11.9863L35.6285 11.8813ZM35.7814 8.9745L33.7844 8.86419L33.7842 8.86947L35.7814 8.9745ZM35.9017 8.70475L37.3078 10.127L37.3148 10.12L35.9017 8.70475ZM38.4897 6.1206L37.0808 4.70104L37.0765 4.70533L38.4897 6.1206ZM38.9447 6.03335L39.7338 4.19557L39.7314 4.19457L38.9447 6.03335ZM39.1949 6.42193L41.1943 6.4704L41.1944 6.4649L39.1949 6.42193ZM39.137 8.81207L37.1375 8.7636L37.0866 10.863L39.186 10.8115L39.137 8.81207ZM41.5305 8.75337L41.5795 10.7528L41.5935 10.7524L41.6075 10.7519L41.5305 8.75337ZM41.9197 9.00313L43.7569 8.21265L43.7562 8.21105L41.9197 9.00313ZM41.8322 9.45682L40.4236 8.037L40.4192 8.04139L41.8322 9.45682ZM39.2437 12.0409L37.8307 10.6254L37.8226 10.6336L39.2437 12.0409ZM38.9742 12.1611L39.0792 14.1584L39.0863 14.158L38.9742 12.1611ZM36.0624 12.3142L35.9574 10.317L35.9082 10.3196L35.8593 10.3246L36.0624 12.3142ZM34.6006 9.07057L34.4802 11.3619L38.4746 11.572L38.5951 9.28062L34.6006 9.07057ZM36.5826 13.4642L38.8773 13.3433L38.6669 9.34882L36.3722 9.46972L36.5826 13.4642ZM40.1852 12.7614L41.9313 11.0182L39.1052 8.18742L37.3591 9.93066L40.1852 12.7614ZM40.4696 7.60339L38.6754 7.64707L38.7727 11.6459L40.5669 11.6022L40.4696 7.60339ZM38.6475 7.64794C39.115 7.63004 39.5407 7.81353 39.8413 8.11626L37.003 10.9348C37.4628 11.3978 38.1109 11.6714 38.8006 11.645L38.6475 7.64794ZM39.8296 8.10458C40.1473 8.41924 40.3089 8.84203 40.3007 9.2632L36.3014 9.18532C36.2888 9.83263 36.5366 10.4729 37.0147 10.9465L39.8296 8.10458ZM40.3005 9.27223L40.3435 7.47961L36.3446 7.38367L36.3016 9.1763L40.3005 9.27223ZM36.9307 6.01654L35.1846 7.76049L38.0112 10.5907L39.7574 8.84674L36.9307 6.01654ZM36.0408 10.315C36.4543 10.315 36.8592 10.4771 37.162 10.7793L34.336 13.6102C34.7936 14.067 35.4095 14.315 36.0408 14.315V10.315ZM37.1628 10.7801C37.4785 11.0956 37.6506 11.5348 37.6255 11.9912L33.6316 11.7715C33.5936 12.4612 33.8534 13.1279 34.3352 13.6094L37.1628 10.7801ZM37.6258 11.9863L37.7786 9.07953L33.7842 8.86947L33.6313 11.7763L37.6258 11.9863ZM37.7784 9.08481C37.7574 9.46388 37.5982 9.8399 37.3078 10.127L34.4955 7.2825C34.0604 7.71268 33.8167 8.28041 33.7845 8.86419L37.7784 9.08481ZM37.3148 10.12L39.9028 7.53588L37.0765 4.70533L34.4885 7.28947L37.3148 10.12ZM39.8986 7.54015C39.4437 7.99154 38.7562 8.12805 38.158 7.87214L39.7314 4.19457C38.8221 3.80556 37.775 4.01215 37.0808 4.70105L39.8986 7.54015ZM38.1557 7.87113C37.5611 7.61583 37.1815 7.02531 37.1954 6.37895L41.1944 6.4649C41.2156 5.48222 40.6383 4.58392 39.7338 4.19557L38.1557 7.87113ZM37.1955 6.37345L37.1375 8.7636L41.1364 8.86055L41.1943 6.4704L37.1955 6.37345ZM39.186 10.8115L41.5795 10.7528L41.4815 6.75397L39.0879 6.81267L39.186 10.8115ZM41.6075 10.7519C40.9154 10.7785 40.3305 10.3685 40.0832 9.79522L43.7562 8.21105C43.3756 7.3286 42.4795 6.71533 41.4535 6.75485L41.6075 10.7519ZM40.0825 9.79362C39.8261 9.19755 39.9573 8.49968 40.4236 8.037L43.2408 10.8766C43.9466 10.1764 44.1469 9.11923 43.7569 8.21265L40.0825 9.79362ZM40.4192 8.04139L37.8307 10.6254L40.6567 13.4563L43.2452 10.8723L40.4192 8.04139ZM37.8226 10.6336C38.1095 10.3439 38.4842 10.1855 38.8621 10.1643L39.0863 14.158C39.6677 14.1253 40.2347 13.8825 40.6649 13.4481L37.8226 10.6336ZM38.8691 10.1639L35.9574 10.317L36.1674 14.3115L39.0792 14.1584L38.8691 10.1639ZM35.8593 10.3246C35.919 10.3185 35.9676 10.3164 35.9983 10.3156C36.0139 10.3152 36.0264 10.3151 36.0343 10.315C36.0383 10.315 36.0416 10.315 36.0437 10.315C36.0457 10.315 36.0471 10.315 36.0472 10.315L36.0343 14.315C36.038 14.315 36.1414 14.3166 36.2654 14.3039L35.8593 10.3246Z" fill="#1DAD9E" mask="url(#path-27-inside-12_1832_847)"/>
<mask id="path-29-inside-13_1832_847" fill="white">
<path fill-rule="evenodd" clip-rule="evenodd" d="M23.9996 24.4368C23.8943 24.4368 23.7896 24.3968 23.7093 24.3173C23.5474 24.157 23.5458 23.8958 23.7064 23.7341L35.7469 11.6066C35.9074 11.4448 36.1682 11.4434 36.3303 11.6037C36.4924 11.764 36.4937 12.0252 36.3331 12.187L24.2928 24.3144C24.2127 24.396 24.1057 24.4368 23.9996 24.4368Z"/>
</mask>
<path fill-rule="evenodd" clip-rule="evenodd" d="M23.9996 24.4368C23.8943 24.4368 23.7896 24.3968 23.7093 24.3173C23.5474 24.157 23.5458 23.8958 23.7064 23.7341L35.7469 11.6066C35.9074 11.4448 36.1682 11.4434 36.3303 11.6037C36.4924 11.764 36.4937 12.0252 36.3331 12.187L24.2928 24.3144C24.2127 24.396 24.1057 24.4368 23.9996 24.4368Z" fill="#6BE9DB"/>
<path d="M23.7093 24.3173L25.1161 22.8957L25.1161 22.8957L23.7093 24.3173ZM23.7064 23.7341L25.1256 25.1433L25.1257 25.1432L23.7064 23.7341ZM35.7469 11.6066L37.1662 13.0157L37.1666 13.0153L35.7469 11.6066ZM36.3303 11.6037L34.9236 13.0254L34.9241 13.0259L36.3303 11.6037ZM36.3331 12.187L34.9139 10.7778L34.9138 10.7779L36.3331 12.187ZM24.2928 24.3144L22.8735 22.9053L22.8661 22.9128L24.2928 24.3144ZM23.9996 22.4368C24.4033 22.4368 24.8094 22.5922 25.1161 22.8957L22.3025 25.7389C22.7698 26.2013 23.3854 26.4368 23.9996 26.4368V22.4368ZM25.1161 22.8957C25.7381 23.5112 25.7464 24.5182 25.1256 25.1433L22.2873 22.3249C21.3453 23.2735 21.3566 24.8029 22.3026 25.7389L25.1161 22.8957ZM25.1257 25.1432L37.1662 13.0157L34.3276 10.1975L22.2871 22.325L25.1257 25.1432ZM37.1666 13.0153C36.551 13.6356 35.5472 13.6424 34.9236 13.0254L37.7369 10.182C36.7893 9.24444 35.2637 9.25403 34.3272 10.1978L37.1666 13.0153ZM34.9241 13.0259C34.3005 12.4094 34.2941 11.4021 34.9139 10.7778L37.7524 13.5961C38.6933 12.6484 38.6842 11.1186 37.7364 10.1815L34.9241 13.0259ZM34.9138 10.7779L22.8735 22.9053L25.7121 25.7235L37.7524 13.5961L34.9138 10.7779ZM22.8661 22.9128C23.1819 22.5914 23.5982 22.4368 23.9996 22.4368V26.4368C24.6132 26.4368 25.2434 26.2007 25.7195 25.7161L22.8661 22.9128Z" fill="#1DAD9E" mask="url(#path-29-inside-13_1832_847)"/>
</svg>
