<svg width="87" height="87" viewBox="0 0 87 87" fill="none" xmlns="http://www.w3.org/2000/svg">
<circle cx="43.5" cy="43.5" r="41.5" fill="white" stroke="#1D2F4E" stroke-width="4"/>
<path d="M35.5 31.5C35.5 30.1739 34.9732 28.9021 34.0355 27.9645C33.0979 27.0268 31.8261 26.5 30.5 26.5C29.1739 26.5 27.9021 27.0268 26.9645 27.9645C26.0268 28.9021 25.5 30.1739 25.5 31.5C25.5 32.8261 26.0268 34.0979 26.9645 35.0355C27.9021 35.9732 29.1739 36.5 30.5 36.5C31.8261 36.5 33.0979 35.9732 34.0355 35.0355C34.9732 34.0979 35.5 32.8261 35.5 31.5ZM21.5 44C21.5 45.3828 22.6172 46.5 24 46.5H30.6875C31.4766 43.4219 33.7031 40.9141 36.6094 39.7344C35.8516 39.2656 34.9531 39 34 39H26.5C23.7422 39 21.5 41.2422 21.5 44ZM57.5625 46.5H64C65.3828 46.5 66.5 45.3828 66.5 44C66.5 41.2422 64.2578 39 61.5 39H54C53.0859 39 52.2266 39.2422 51.4922 39.6719C54.4687 40.8281 56.7578 43.3672 57.5625 46.5ZM49.5625 41.6875C49.0234 41.5625 48.4531 41.5 47.875 41.5H40.375C39.7109 41.5 39.0703 41.5859 38.4609 41.7422C36.0547 42.375 34.1172 44.1719 33.2969 46.5C33.0234 47.2812 32.8672 48.125 32.8672 49C32.8672 50.3828 33.9844 51.5 35.3672 51.5H52.8672C54.25 51.5 55.3672 50.3828 55.3672 49C55.3672 48.125 55.2187 47.2812 54.9375 46.5C54.0937 44.1016 52.0625 42.2656 49.5547 41.6875H49.5625ZM63 31.5C63 30.1739 62.4732 28.9021 61.5355 27.9645C60.5979 27.0268 59.3261 26.5 58 26.5C56.6739 26.5 55.4021 27.0268 54.4645 27.9645C53.5268 28.9021 53 30.1739 53 31.5C53 32.8261 53.5268 34.0979 54.4645 35.0355C55.4021 35.9732 56.6739 36.5 58 36.5C59.3261 36.5 60.5979 35.9732 61.5355 35.0355C62.4732 34.0979 63 32.8261 63 31.5ZM44.125 39C45.7826 39 47.3723 38.3415 48.5444 37.1694C49.7165 35.9973 50.375 34.4076 50.375 32.75C50.375 31.0924 49.7165 29.5027 48.5444 28.3306C47.3723 27.1585 45.7826 26.5 44.125 26.5C42.4674 26.5 40.8777 27.1585 39.7056 28.3306C38.5335 29.5027 37.875 31.0924 37.875 32.75C37.875 34.4076 38.5335 35.9973 39.7056 37.1694C40.8777 38.3415 42.4674 39 44.125 39ZM21.5 56.5C20.1172 56.5 19 57.6172 19 59C19 60.3828 20.1172 61.5 21.5 61.5H66.5C67.8828 61.5 69 60.3828 69 59C69 57.6172 67.8828 56.5 66.5 56.5H21.5Z" fill="#1D2F4E"/>
</svg>
