<svg width="87" height="87" viewBox="0 0 87 87" fill="none" xmlns="http://www.w3.org/2000/svg">
<circle cx="43.5" cy="43.5" r="41.5" fill="white" stroke="#1D2F4E" stroke-width="4"/>
<path d="M33.6665 38.5833H38.5832V42.2708H33.6665V38.5833ZM38.5832 44.7291H33.6665V48.4166H38.5832V44.7291ZM33.6665 50.8749H38.5832V54.5624H33.6665V50.8749ZM45.9582 38.5833H41.0415V42.2708H45.9582V38.5833ZM41.0415 44.7291H45.9582V48.4166H41.0415V44.7291ZM45.9582 50.8749H41.0415V54.5624H45.9582V50.8749ZM48.4165 38.5833H53.3332V42.2708H48.4165V38.5833ZM53.3332 44.7291H48.4165V48.4166H53.3332V44.7291ZM48.4165 50.8749H53.3332V54.5624H48.4165V50.8749Z" fill="#1D2F4E"/>
<path fill-rule="evenodd" clip-rule="evenodd" d="M52.1041 21.375C52.1041 20.723 51.8451 20.0977 51.3841 19.6367C50.923 19.1756 50.2977 18.9166 49.6458 18.9166H37.3541C36.7021 18.9166 36.0768 19.1756 35.6158 19.6367C35.1548 20.0977 34.8958 20.723 34.8958 21.375H26.2916V23.8333H28.7499V65.625H25.0624C24.7364 65.625 24.4238 65.7545 24.1933 65.985C23.9628 66.2155 23.8333 66.5281 23.8333 66.8541C23.8333 67.1801 23.9628 67.4928 24.1933 67.7233C24.4238 67.9538 24.7364 68.0833 25.0624 68.0833H61.9374C62.2634 68.0833 62.5761 67.9538 62.8066 67.7233C63.0371 67.4928 63.1666 67.1801 63.1666 66.8541C63.1666 66.5281 63.0371 66.2155 62.8066 65.985C62.5761 65.7545 62.2634 65.625 61.9374 65.625H58.2499V23.8333H60.7083V21.375H52.1041ZM49.6458 36.125C50.2977 36.125 50.923 35.866 51.3841 35.4049C51.8451 34.9439 52.1041 34.3186 52.1041 33.6666V27.5208H55.7916V65.625H52.1041V60.7083H53.3333V58.25H33.6666V60.7083H34.8958V65.625H31.2083V27.5208H34.8958V33.6666C34.8958 34.3186 35.1548 34.9439 35.6158 35.4049C36.0768 35.866 36.7021 36.125 37.3541 36.125H49.6458ZM42.2708 65.625H44.7291V60.7083H42.2708V65.625ZM55.7916 23.8333V25.0625H52.1041V23.8333H55.7916ZM31.2083 25.0625H34.8958V23.8333H31.2083V25.0625ZM38.5833 26.2916H42.2708V22.6041H44.7291V26.2916H48.4166V28.75H44.7291V32.4375H42.2708V28.75H38.5833V26.2916Z" fill="#1D2F4E"/>
</svg>
