<svg width="13" height="13" viewBox="0 0 13 13" fill="none" xmlns="http://www.w3.org/2000/svg">
<mask id="path-1-inside-1_2367_1204" fill="white">
<path d="M3.12709 2.06445C3.05751 2.06446 2.9893 2.08382 2.93009 2.12038C2.87088 2.15693 2.82302 2.20924 2.79184 2.27145L1.29184 5.27145C1.2594 5.33605 1.24632 5.40863 1.25417 5.48049C1.26202 5.55234 1.29047 5.62039 1.33609 5.67645L6.21109 11.6765C6.24625 11.7197 6.29062 11.7546 6.34096 11.7785C6.3913 11.8025 6.44634 11.8149 6.50209 11.8149C6.55784 11.8149 6.61289 11.8025 6.66323 11.7785C6.71357 11.7546 6.75793 11.7197 6.79309 11.6765L11.6681 5.67645C11.7138 5.62047 11.7424 5.55245 11.7504 5.4806C11.7584 5.40875 11.7454 5.33611 11.7131 5.27145L10.2131 2.27145C10.1819 2.20913 10.1339 2.15674 10.0745 2.12018C10.0152 2.08361 9.9468 2.06432 9.87709 2.06445H3.12709ZM2.23384 5.06445L3.35884 2.81445H4.89634L4.33384 5.06445H2.23384ZM2.41459 5.81445H4.35184L5.56159 9.68745L2.41459 5.81445ZM5.13709 5.81445H7.86709L6.50209 10.1817L5.13709 5.81445ZM8.65309 5.81445H10.5896L7.44259 9.68745L8.65309 5.81445ZM10.7703 5.06445H8.67034L8.10784 2.81445H9.64534L10.7703 5.06445ZM7.89709 5.06445H5.10709L5.66959 2.81445H7.33459L7.89709 5.06445Z"/>
</mask>
<path d="M3.12709 2.06445C3.05751 2.06446 2.9893 2.08382 2.93009 2.12038C2.87088 2.15693 2.82302 2.20924 2.79184 2.27145L1.29184 5.27145C1.2594 5.33605 1.24632 5.40863 1.25417 5.48049C1.26202 5.55234 1.29047 5.62039 1.33609 5.67645L6.21109 11.6765C6.24625 11.7197 6.29062 11.7546 6.34096 11.7785C6.3913 11.8025 6.44634 11.8149 6.50209 11.8149C6.55784 11.8149 6.61289 11.8025 6.66323 11.7785C6.71357 11.7546 6.75793 11.7197 6.79309 11.6765L11.6681 5.67645C11.7138 5.62047 11.7424 5.55245 11.7504 5.4806C11.7584 5.40875 11.7454 5.33611 11.7131 5.27145L10.2131 2.27145C10.1819 2.20913 10.1339 2.15674 10.0745 2.12018C10.0152 2.08361 9.9468 2.06432 9.87709 2.06445H3.12709ZM2.23384 5.06445L3.35884 2.81445H4.89634L4.33384 5.06445H2.23384ZM2.41459 5.81445H4.35184L5.56159 9.68745L2.41459 5.81445ZM5.13709 5.81445H7.86709L6.50209 10.1817L5.13709 5.81445ZM8.65309 5.81445H10.5896L7.44259 9.68745L8.65309 5.81445ZM10.7703 5.06445H8.67034L8.10784 2.81445H9.64534L10.7703 5.06445ZM7.89709 5.06445H5.10709L5.66959 2.81445H7.33459L7.89709 5.06445Z" fill="#7ACEFA"/>
<path d="M3.12709 2.06445V1.01296H3.12706L3.12709 2.06445ZM2.79184 2.27145L1.85177 1.80039L1.85136 1.80121L2.79184 2.27145ZM1.29184 5.27145L2.23149 5.74337L2.23232 5.74169L1.29184 5.27145ZM1.33609 5.67645L2.15217 5.01339L2.15166 5.01276L1.33609 5.67645ZM6.21109 11.6765L5.39502 12.3395L5.39514 12.3397L6.21109 11.6765ZM6.79309 11.6765L7.60905 12.3397L7.60917 12.3395L6.79309 11.6765ZM11.6681 5.67645L10.8538 5.01116L10.852 5.01339L11.6681 5.67645ZM11.7131 5.27145L10.7726 5.74169L10.7727 5.74178L11.7131 5.27145ZM10.2131 2.27145L11.1536 1.80121L11.1532 1.80039L10.2131 2.27145ZM9.87709 2.06445V3.11595L9.87916 3.11594L9.87709 2.06445ZM2.23384 5.06445L1.29336 4.59421L0.532496 6.11594H2.23384V5.06445ZM3.35884 2.81445V1.76296H2.70899L2.41836 2.34421L3.35884 2.81445ZM4.89634 2.81445L5.91644 3.06948L6.24307 1.76296H4.89634V2.81445ZM4.33384 5.06445V6.11594H5.15482L5.35394 5.31948L4.33384 5.06445ZM2.41459 5.81445V4.76296H0.205359L1.59854 6.47754L2.41459 5.81445ZM4.35184 5.81445L5.35551 5.50095L5.125 4.76296H4.35184V5.81445ZM5.56159 9.68745L4.74554 10.3505L6.56526 9.37395L5.56159 9.68745ZM5.13709 5.81445V4.76296H3.70679L4.13348 6.12814L5.13709 5.81445ZM7.86709 5.81445L8.8707 6.12814L9.29739 4.76296H7.86709V5.81445ZM6.50209 10.1817L5.49848 10.4954L6.50209 13.7064L7.5057 10.4954L6.50209 10.1817ZM8.65309 5.81445V4.76296H7.88008L7.64948 5.50078L8.65309 5.81445ZM10.5896 5.81445L11.4056 6.47754L12.7988 4.76296H10.5896V5.81445ZM7.44259 9.68745L6.43898 9.37378L8.25865 10.3505L7.44259 9.68745ZM10.7703 5.06445V6.11594H12.4717L11.7108 4.59421L10.7703 5.06445ZM8.67034 5.06445L7.65025 5.31948L7.84936 6.11594H8.67034V5.06445ZM8.10784 2.81445V1.76296H6.76112L7.08775 3.06948L8.10784 2.81445ZM9.64534 2.81445L10.5858 2.34421L10.2952 1.76296H9.64534V2.81445ZM7.89709 5.06445V6.11594H9.24382L8.91719 4.80943L7.89709 5.06445ZM5.10709 5.06445L4.087 4.80943L3.76037 6.11594H5.10709V5.06445ZM5.66959 2.81445V1.76296H4.84861L4.6495 2.55943L5.66959 2.81445ZM7.33459 2.81445L8.35469 2.55943L8.15557 1.76296H7.33459V2.81445ZM3.12706 1.01296C2.86236 1.01297 2.60289 1.08663 2.37767 1.22569L3.48251 3.01506C3.37571 3.08101 3.25266 3.11594 3.12713 3.11594L3.12706 1.01296ZM2.37767 1.22569C2.15245 1.36475 1.97036 1.56374 1.85177 1.80039L3.73191 2.74252C3.67567 2.85475 3.58932 2.94911 3.48251 3.01506L2.37767 1.22569ZM1.85136 1.80121L0.351361 4.80121L2.23232 5.74169L3.73232 2.74169L1.85136 1.80121ZM0.352202 4.79954C0.228802 5.04524 0.179039 5.32137 0.208902 5.59469L2.29944 5.36628C2.3136 5.4959 2.29 5.62685 2.23148 5.74337L0.352202 4.79954ZM0.208902 5.59469C0.238765 5.86802 0.346981 6.12689 0.520528 6.34015L2.15166 5.01276C2.23396 5.1139 2.28528 5.23666 2.29944 5.36628L0.208902 5.59469ZM0.520016 6.33952L5.39502 12.3395L7.02717 11.0134L2.15217 5.01339L0.520016 6.33952ZM5.39514 12.3397C5.52889 12.5042 5.69765 12.6369 5.88914 12.728L6.79277 10.8291C6.88358 10.8723 6.96362 10.9352 7.02705 11.0132L5.39514 12.3397ZM5.88914 12.728C6.08064 12.8191 6.29003 12.8664 6.50209 12.8664V10.7634C6.60266 10.7634 6.70196 10.7859 6.79277 10.8291L5.88914 12.728ZM6.50209 12.8664C6.71415 12.8664 6.92355 12.8191 7.11504 12.728L6.21141 10.8291C6.30222 10.7859 6.40153 10.7634 6.50209 10.7634V12.8664ZM7.11504 12.728C7.30653 12.6369 7.47529 12.5042 7.60905 12.3397L5.97714 11.0132C6.04057 10.9352 6.1206 10.8723 6.21141 10.8291L7.11504 12.728ZM7.60917 12.3395L12.4842 6.33952L10.852 5.01339L5.97702 11.0134L7.60917 12.3395ZM12.4824 6.34174C12.6564 6.12878 12.7651 5.87005 12.7955 5.59672L10.7053 5.36448C10.7197 5.23486 10.7713 5.11216 10.8538 5.01117L12.4824 6.34174ZM12.7955 5.59672C12.8258 5.32338 12.7765 5.0471 12.6535 4.80113L10.7727 5.74178C10.7143 5.62513 10.6909 5.49411 10.7053 5.36448L12.7955 5.59672ZM12.6536 4.80121L11.1536 1.80121L9.27261 2.74169L10.7726 5.74169L12.6536 4.80121ZM11.1532 1.80039C11.0344 1.56331 10.8518 1.36404 10.6261 1.22494L9.523 3.01542C9.41593 2.94945 9.32936 2.85495 9.27302 2.74252L11.1532 1.80039ZM10.6261 1.22494C10.4003 1.08585 10.1402 1.01244 9.87503 1.01297L9.87916 3.11594C9.7534 3.11619 9.63006 3.08138 9.523 3.01542L10.6261 1.22494ZM9.87709 1.01296H3.12709V3.11594H9.87709V1.01296ZM3.17432 5.53469L4.29932 3.28469L2.41836 2.34421L1.29336 4.59421L3.17432 5.53469ZM3.35884 3.86594H4.89634V1.76296H3.35884V3.86594ZM3.87625 2.55943L3.31375 4.80943L5.35394 5.31948L5.91644 3.06948L3.87625 2.55943ZM4.33384 4.01296H2.23384V6.11594H4.33384V4.01296ZM2.41459 6.86594H4.35184V4.76296H2.41459V6.86594ZM3.34817 6.12795L4.55792 10.001L6.56526 9.37395L5.35551 5.50095L3.34817 6.12795ZM6.37765 9.02437L3.23065 5.15137L1.59854 6.47754L4.74554 10.3505L6.37765 9.02437ZM5.13709 6.86594H7.86709V4.76296H5.13709V6.86594ZM6.86348 5.50077L5.49848 9.86802L7.5057 10.4954L8.8707 6.12814L6.86348 5.50077ZM7.5057 9.86802L6.1407 5.50077L4.13348 6.12814L5.49848 10.4954L7.5057 9.86802ZM8.65309 6.86594H10.5896V4.76296H8.65309V6.86594ZM9.77353 5.15137L6.62654 9.02437L8.25865 10.3505L11.4056 6.47754L9.77353 5.15137ZM8.44621 10.0011L9.65671 6.12813L7.64948 5.50078L6.43898 9.37378L8.44621 10.0011ZM10.7703 4.01296H8.67034V6.11594H10.7703V4.01296ZM9.69044 4.80943L9.12794 2.55943L7.08775 3.06948L7.65025 5.31948L9.69044 4.80943ZM8.10784 3.86594H9.64534V1.76296H8.10784V3.86594ZM8.70486 3.28469L9.82986 5.53469L11.7108 4.59421L10.5858 2.34421L8.70486 3.28469ZM7.89709 4.01296H5.10709V6.11594H7.89709V4.01296ZM6.12719 5.31948L6.68969 3.06948L4.6495 2.55943L4.087 4.80943L6.12719 5.31948ZM5.66959 3.86594H7.33459V1.76296H5.66959V3.86594ZM6.3145 3.06948L6.877 5.31948L8.91719 4.80943L8.35469 2.55943L6.3145 3.06948Z" fill="#7ACEFA" mask="url(#path-1-inside-1_2367_1204)"/>
</svg>
