<svg width="48" height="48" viewBox="0 0 48 48" fill="none" xmlns="http://www.w3.org/2000/svg">
<rect width="48" height="48" rx="24" fill="white"/>
<path d="M24.0002 28.6297C21.4477 28.6297 19.3711 26.553 19.3711 24.0004C19.3711 21.4478 21.4477 19.3711 24.0002 19.3711C26.5527 19.3711 28.6293 21.4478 28.6293 24.0004C28.6293 26.553 26.5527 28.6297 24.0002 28.6297ZM24.0002 21.4225C22.5788 21.4225 21.4224 22.5789 21.4224 24.0004C21.4224 25.4219 22.5788 26.5783 24.0002 26.5783C25.4216 26.5783 26.5781 25.4219 26.5781 24.0004C26.5781 22.5789 25.4216 21.4225 24.0002 21.4225Z" fill="#4E93FC"/>
<path d="M24.0001 33.036C19.0191 33.036 14.9668 28.9836 14.9668 24.0024C14.9668 19.0212 19.0191 14.9688 24.0001 14.9688C28.9811 14.9688 33.0334 19.0212 33.0334 24.0024C33.0334 28.9836 28.9811 33.036 24.0001 33.036ZM24.0001 17.0201C20.1502 17.0201 17.0181 20.1523 17.0181 24.0024C17.0181 27.8524 20.1502 30.9847 24.0001 30.9847C27.85 30.9847 30.9821 27.8524 30.9821 24.0024C30.9821 20.1523 27.85 17.0201 24.0001 17.0201ZM24.0001 28.6317C21.4476 28.6317 19.371 26.555 19.371 24.0024C19.371 21.4498 21.4476 19.3731 24.0001 19.3731C26.5526 19.3731 28.6292 21.4498 28.6292 24.0024C28.6292 26.555 26.5526 28.6317 24.0001 28.6317ZM24.0001 21.4244C22.5787 21.4244 21.4222 22.5809 21.4222 24.0024C21.4222 25.4238 22.5787 26.5803 24.0001 26.5803C25.4215 26.5803 26.5779 25.4238 26.5779 24.0024C26.5779 22.5809 25.4215 21.4244 24.0001 21.4244Z" fill="#4E93FC"/>
<path d="M24.2452 33.0328L24.209 30.9818C28.1383 30.9123 31.7084 28.8635 34.0115 27.157C35.6479 25.9444 36.8977 24.7255 37.5874 24.0027C36.8979 23.2801 35.6479 22.0611 34.0115 20.8485C31.7084 19.142 28.1383 17.0931 24.209 17.0237L24.2452 14.9727C27.7994 15.0355 31.6133 16.5082 35.2748 19.2316C38.0064 21.2634 39.6903 23.2603 39.7607 23.3443C40.0798 23.7253 40.0798 24.2802 39.7607 24.6613C39.6903 24.7453 38.0064 26.7422 35.2748 28.7739C31.6133 31.4973 27.7994 32.97 24.2452 33.0328Z" fill="#4E93FC"/>
<path d="M23.7548 33.0329C20.2006 32.97 16.3867 31.4973 12.7252 28.7739C9.99366 26.7423 8.30969 24.7453 8.23933 24.6613C7.92022 24.2803 7.92022 23.7253 8.23933 23.3443C8.30969 23.2602 9.99366 21.2634 12.7252 19.2316C16.3867 16.5082 20.2006 15.0355 23.7548 14.9727L23.791 17.0237C19.8617 17.0931 16.2916 19.142 13.9885 20.8485C12.3521 22.0611 11.1024 23.28 10.4127 24.0028C11.1022 24.7254 12.3521 25.9445 13.9885 27.157C16.2916 28.8636 19.8617 30.9124 23.791 30.9819L23.7548 33.0329Z" fill="#4E93FC"/>
<path d="M10.0523 18.895H8.00098V9.02568C8.00098 8.45923 8.46019 8 9.02662 8H18.8955V10.0514H10.0523V18.895Z" fill="#4E93FC"/>
<path d="M18.8945 40.0004H9.02564C8.45921 40.0004 8 39.5412 8 38.9748V29.1055H10.0513V37.9491H18.8945V40.0004Z" fill="#4E93FC"/>
<path d="M38.9744 40.0004H29.1055V37.9491H37.9487V29.1055H40V38.9748C40 39.5412 39.5408 40.0004 38.9744 40.0004Z" fill="#4E93FC"/>
<path d="M40 18.895H37.9487V10.0514H29.1055V8H38.9744C39.5408 8 40 8.45923 40 9.02568V18.895Z" fill="#4E93FC"/>
</svg>
